<svg width="2e3" height="2e3" version="1.1" viewBox="0 0 2000 2000" xmlns="http://www.w3.org/2000/svg">
 <g transform="translate(0 1e3)" display="none">
  <path d="m-855.6 620.02s797.01-59.599 891.96-58.589c94.954 1.0102 197.99 67.68 231.32 87.883 33.335 20.203 307.09 165.67 560.63 163.64 253.55-2.0203 419.21-98.995 593.97-102.03 174.76-3.0304 328.3 22.223 432.35 22.223s1198-145.46 1198-145.46" fill="none" stroke="#000000" stroke-width="1px"/>
 </g>
 <g transform="translate(0 947.64)">
  <path d="m2e3 555.26v-513.79l-731.85 3.7593-33.002 5.14-15.468 0.91271-11.827 5.7659-2.5692 1.7326-3.0829 4.8962-2.5388 5.0776-4.7994 3.7885-3.4649 7.7949s-2.2467 4.1284-7.9272 5.0115c-7.9946 1.2429-11.13 0.2456-11.322 0.2456-0.1922 0-4.6597-0.96074-6.245-1.1049-1.5852-0.14411-4.0832 0.86467-4.0832 0.86467h-4.8519l-1.6333-1.0088-2.2577-0.57645-2.6421 0.048-1.7774 0.43234s-10.472 0-12.826 0.43233c-2.3539 0.43234-7.5901 2.1136-7.5901 2.1136l-1.2009-0.52841s-4.2274-0.28823-7.4459 0.24018c-3.2186 0.52842-4.3235 2.1617-4.3235 2.1617l-0.1441 1.0088 0.3363 0.62448-2.0176 0.91271-1.4412 0.048-1.4891-0.28822-2.2098 0.72056-0.8647 1.1529s-8.0224 1.8254-10.04 2.4019-5.8606 0.14411-5.8606 0.14411l-2.9784-0.81663s-1.3931 0.1441-1.6333 0.1441c-0.2401 0-3.0264-0.33626-3.0264-0.33626l-3.2665 0.24019-0.4325 1.0088-3.6028-0.14411-1.297-0.76861-0.9608-0.19214-1.249 0.57644-1.9215-0.0961s-2.4979-1.0568-3.843-2.1617-6.1489-3.3626-7.8302-3.891c-1.6814-0.52841-5.8127-2.4019-5.8127-2.4019l-3.747-2.0176s-3.3626-1.1049-3.5548-1.1049c-0.1921 0-4.0832-1.6813-4.0832-1.6813l-3.8911-2.2578-1.9215-1.8735-2.8343-1.2009-1.345-2.1752s-2.3059-1.1529-3.6029-1.8254c-1.297-0.67252-5.0921-8.1107-5.0921-8.1107l-0.4803-0.72055s-2.2578-0.81666-2.546-0.76861c-0.2883 0.048-2.7862-0.33626-2.7862-0.33626l-0.1922 0.48039s-5.9086-1.9422-8.4223-1.9422-17.12-0.13586-19.905 0c-2.7854 0.13588-15.218 1.9022-15.218 1.9022l-24.593 0.74731-949.47 15.024v474.42" fill="#ffffff" fill-rule="evenodd"/>
  <path d="m1009.2 61.023c2.5137 0 8.4223 1.9422 8.4223 1.9422l0.1922-0.48038s2.4979 0.38429 2.7862 0.33626c0.2882-0.048 2.546 0.7686 2.546 0.7686l0.4803 0.72056s3.7951 7.4382 5.0921 8.1107c1.297 0.67252 3.6029 1.8254 3.6029 1.8254l1.345 2.1752 2.8343 1.2009 1.9215 1.8735 3.8911 2.2578s3.8911 1.6813 4.0832 1.6813c0.1922 0 3.5548 1.1049 3.5548 1.1049l3.747 2.0176s4.1313 1.8735 5.8127 2.4019c1.6813 0.52842 6.4851 2.7862 7.8302 3.891 1.3451 1.1048 3.843 2.1617 3.843 2.1617l1.9216 0.0961 1.2489-0.57644 0.9608 0.19214 1.297 0.76861 3.6029 0.1441 0.4324-1.0088 3.2665-0.24019s2.7863 0.33626 3.0264 0.33626c0.2402 0 1.6333-0.14411 1.6333-0.14411l2.9784 0.81663s3.843 0.43235 5.8606-0.1441c2.0176-0.57646 10.04-2.4019 10.04-2.4019l0.8647-1.1529 2.2098-0.72056 1.4891 0.28822 1.4412-0.048 2.0176-0.9127-0.3363-0.62449 0.1441-1.0088s1.1049-1.6333 4.3235-2.1617c3.2185-0.52841 7.4459-0.24018 7.4459-0.24018l1.2009 0.5284s5.2362-1.6813 7.5901-2.1136c2.3538-0.43233 12.826-0.43233 12.826-0.43233l1.7774-0.43233 2.6421-0.048 2.2577 0.57645 1.6333 1.0088h4.8519s2.498-1.0088 4.0832-0.86467c1.5853 0.14411 6.0528 1.1048 6.245 1.1048 0.1921 0 3.3274 0.99731 11.322-0.24559 5.6805-0.88318 7.9272-5.0115 7.9272-5.0115l3.4649-7.7949 4.7994-3.7885 2.5388-5.0776 3.0829-4.8963 2.7202-1.8134" fill="none" stroke="#803300" stroke-width=".95104"/>
  <path d="m1032.5 34.283-1.9533 4.2515 1.9022 3.6685 5.5707 3.6685 11.142 1.087s8.1524 1.6304 10.87 2.038c2.7174 0.40762 9.7827 3.6685 17.392 4.212 7.6089 0.54348 31.386-3.2609 40.626-2.7174 9.2393 0.54348 23.506-4.0761 23.506-4.0761l18.071-0.13588 12.908 1.7663 10.734-4.6196 4.5114-4.6461 0.3843-8.8389" fill="#ffffff" fill-rule="evenodd" stroke="#803300" stroke-width=".9511"/>
  <g stroke="#2da523" stroke-width=".9511">
   <path d="m1032.2 34.458s3.3309-7.7503 10.804-11.419c7.473-3.6685 25.746-7.3313 34.578-7.8748 8.8318-0.54349 22.011 1.087 34.376 0.54348 12.364-0.54348 50.423-11.57 59.39-9.1243 8.9676 2.4457 16.441 23.506 16.441 23.506" fill="#ffffff" fill-rule="evenodd"/>
   <path d="m1207.7 57.131 11.978-5.8467 15.468-0.91271 33.002-5.14l731.85-3.7593" fill="none"/>
   <path d="m0 78.696 949.47-15.024 24.593-0.74728s12.432-1.7663 15.218-1.9022c2.7854-0.13587 17.392 0 19.905 0" fill="none"/>
  </g>
 </g>
 <g transform="translate(0 947.64)">
  <path d="m1083.5 133.96s8.2377-42.917 8.4495-59.86c-0.2118 16.943 9.9542 62.902 9.9542 62.902" fill="#ffffff" fill-rule="evenodd" stroke="#8a421a" stroke-linecap="round" stroke-linejoin="round" stroke-opacity=".4902" stroke-width="1.7791"/>
 </g>
</svg>
