<svg xmlns:rdf="http://www.w3.org/1999/02/22-rdf-syntax-ns#" xmlns="http://www.w3.org/2000/svg" height="2000" width="2000" version="1.1" xmlns:cc="http://creativecommons.org/ns#" xmlns:dc="http://purl.org/dc/elements/1.1/" viewBox="0 0 2000 2000">
 <g transform="translate(0 1000)" fill="none">
  <path d="m1998.2 21.9205 -471.092 7.51859 -66.004 10.2801-30.9362 1.82543-23.6538 11.5318-5.1383 3.46525-6.1657 9.79258-5.0776 10.1553-9.5988 7.577-6.9298 15.5899-15.8543 10.0231-22.6437 0.4912-12.4899-2.20973-8.1664 1.72935h-9.7037l-3.2665-2.01758-4.5155-1.15291-5.2842 0.0961-3.5548 0.86467-25.6522 0.86467-15.18 4.22733-2.4018-1.05682-14.8917 0.48037-8.6469 4.3234-0.2882 2.01759-3.3626 3.07441-2.8823 0.0961-2.9783-0.57645-4.4195 1.44114-1.7294 2.30581-20.0798 4.80378-11.7212 0.28821-5.9567-1.63327-3.2666 0.28822-6.0527-0.67253-6.5331 0.48038-0.8648 2.01759-7.2056-0.28822-2.594-1.53722-1.9216-0.38429-2.4979 1.15289-3.8431-0.19215-7.686-4.32339-15.6603-7.78213-11.6252-4.80377-7.4939-4.03518-7.1096-2.20974-8.1663-3.36264-7.7822-4.51555-3.843-3.74695-5.6685-2.40188-2.69-4.35035-7.2058-3.65087-10.184-16.2215-0.9607-1.44113-5.092-1.53722-5.5724-0.67253-17.2288-2.92366h-39.8104l-30.4351 3.80441-49.1855 1.49458-883.829 30.0485" stroke="#000000" stroke-width="1.9022"/>
  <path d="m1051.99 16.0452 3.8044 7.33705 11.1414 7.33705 22.2829 2.17394 21.7395 4.07615 34.783 8.42403 81.2511-5.43485 47.0115-8.15228 36.1418-0.271762 25.8155 3.53266 21.4677-9.23926 9.0228-9.29226 0.3707-17.5292" stroke="#00ff00" stroke-width="1.9022"/>
  <path d="m1395.78 27.3099 11.1116 15.9099" stroke="#0000ff" stroke-width="1px"/>
  <path d="m 79.16 5.01 81.38 1.83" stroke="#000000" stroke-width="1.5"/>
  <path d="m1366.82-0.993524-33.279-46.8628-118.78 18.2487-68.7509-1.08697-69.1545 15.7498-21.2846 22.6623-3.5838 8.32764" stroke="#000000" stroke-width="1.9022"/>
 </g>
</svg>
