<?xml version="1.0" encoding="UTF-8" standalone="no"?>
<!-- Created with Inkscape (http://www.inkscape.org/) -->

<svg
   xmlns:dc="http://purl.org/dc/elements/1.1/"
   xmlns:cc="http://creativecommons.org/ns#"
   xmlns:rdf="http://www.w3.org/1999/02/22-rdf-syntax-ns#"
   xmlns:svg="http://www.w3.org/2000/svg"
   xmlns="http://www.w3.org/2000/svg"
   xmlns:sodipodi="http://sodipodi.sourceforge.net/DTD/sodipodi-0.dtd"
   xmlns:inkscape="http://www.inkscape.org/namespaces/inkscape"
   width="2000"
   height="2000"
   viewBox="0 0 2000 2000"
   id="svg2"
   version="1.1"
   inkscape:version="0.91 r13725"
   sodipodi:docname="CaveColliders.svg">
  <defs
     id="defs4" />
  <sodipodi:namedview
     id="base"
     pagecolor="#ffffff"
     bordercolor="#666666"
     borderopacity="1.0"
     inkscape:pageopacity="0.0"
     inkscape:pageshadow="2"
     inkscape:zoom="0.70000001"
     inkscape:cx="990.74365"
     inkscape:cy="983.24814"
     inkscape:document-units="px"
     inkscape:current-layer="layer2"
     showgrid="false"
     inkscape:window-width="1920"
     inkscape:window-height="1017"
     inkscape:window-x="-8"
     inkscape:window-y="-8"
     inkscape:window-maximized="1"
     units="px" />
  <metadata
     id="metadata7">
    <rdf:RDF>
      <cc:Work
         rdf:about="">
        <dc:format>image/svg+xml</dc:format>
        <dc:type
           rdf:resource="http://purl.org/dc/dcmitype/StillImage" />
        <dc:title />
      </cc:Work>
    </rdf:RDF>
  </metadata>
  <g
     inkscape:groupmode="layer"
     id="layer2"
     inkscape:label="Ground"
     transform="translate(0,947.63784)">
    <path
       sodipodi:nodetypes="ccscccsccccccccscccccccccccscccccccccccscccccccccssccccccccccc"
       inkscape:connector-curvature="0"
       id="path4155"
       d="m 1998.1984,21.920499 -471.0915,7.518593 -66.004,10.280089 -30.9362,1.825434 -23.6538,11.531798 -5.1383,3.465251 -6.1657,9.792576 -5.0776,10.15527 -9.5988,7.577 -6.9298,15.58988 -15.8543,10.02313 -22.6437,0.4912 -12.4899,-2.20973 -8.1664,1.72935 -9.7037,0 -3.2665,-2.01758 -4.5155,-1.15291 -5.2842,0.0961 -3.5548,0.86467 -25.6522,0.86467 -15.18,4.22733 -2.4018,-1.05682 -14.8917,0.48037 -8.6469,4.3234 -0.2882,2.01759 -3.3626,3.07441 -2.8823,0.0961 -2.9783,-0.57645 -4.4195,1.44114 -1.7294,2.30581 -20.0798,4.80378 -11.7212,0.28821 -5.9567,-1.63327 -3.2666,0.28822 -6.0527,-0.67253 -6.5331,0.48038 -0.8648,2.01759 -7.2056,-0.28822 -2.594,-1.53722 -1.9216,-0.38429 -2.4979,1.15289 -3.8431,-0.19215 -7.686,-4.32339 -15.6603,-7.78213 -11.6252,-4.80377 -7.4939,-4.03518 -7.1096,-2.20974 -8.1663,-3.36264 -7.7822,-4.51555 -3.843,-3.74695 -5.6685,-2.40188 -2.69,-4.35035 -7.2058,-3.65087 -10.184,-16.2215 -0.9607,-1.44113 -5.092,-1.53722 -5.5724,-0.67253 -17.2288,-2.92366 -39.81037,0 -30.4351,3.80441 -49.1855,1.49458 L 5.9406056,96.36978"
       style="fill:none;fill-opacity:1;fill-rule:evenodd;stroke:#000000;stroke-width:1.90219939;stroke-linecap:butt;stroke-linejoin:miter;stroke-miterlimit:4;stroke-dasharray:none;stroke-opacity:1" />
    <path
       style="fill:none;fill-opacity:1;fill-rule:evenodd;stroke:#00ff00;stroke-width:1.90219939;stroke-linecap:butt;stroke-linejoin:miter;stroke-miterlimit:4;stroke-dasharray:none;stroke-opacity:1"
       d="m 1051.9924,16.045193 3.8044,7.33705 11.1414,7.33705 22.2829,2.173941 21.7395,4.076147 34.783,8.424029 81.2511,-5.434853 47.0115,-8.152276 36.1418,-0.271762 25.8155,3.532665 21.4677,-9.239255 9.0228,-9.292262 0.3707,-17.52919051"
       id="path4150"
       inkscape:connector-curvature="0"
       sodipodi:nodetypes="ccccccccccccc" />
    <path
       style="fill:none;fill-rule:evenodd;stroke:#0000ff;stroke-width:1px;stroke-linecap:butt;stroke-linejoin:miter;stroke-opacity:1"
       d="m 1395.7783,27.30988 11.1116,15.9099"
       id="path4686"
       inkscape:connector-curvature="0" />
    <path
       sodipodi:nodetypes="ccccccc"
       inkscape:connector-curvature="0"
       id="path4688"
       d="m 1366.8247,-0.99352351 -33.279,-46.86278049 -118.7795,18.248711 -68.7509,-1.086971 -69.1545,15.749769 -21.2846,22.662346 -3.5838,8.327642"
       style="fill:none;fill-opacity:1;fill-rule:evenodd;stroke:#000000;stroke-width:1.90219939;stroke-linecap:butt;stroke-linejoin:miter;stroke-miterlimit:4;stroke-dasharray:none;stroke-opacity:1" />
  </g>
</svg>
