<svg xmlns="http://www.w3.org/2000/svg" height="2000" width="2000" version="1.1" viewBox="0 0 2000 2000">
 <g transform="translate(0 1000)" fill="none">
  <path d="M 1998.2 19.56 1527.11 27.08 1461.1 37.36 1430.17 39.18 1406.51 50.71 1401.37 54.18 1395.21 63.97 1390.13 74.13 1380.53 81.7 1373.6 97.29 1357.75 107.32 1335.1 107.81 1322.61 105.6 1314.45 107.33 1304.74 107.33 1301.48 105.31 1296.96 104.16 1291.68 104.25 1288.12 105.12 1262.47 105.98 1247.29 110.21 1244.89 109.15 1230 109.63 1221.35 113.96 1221.06 115.98 1217.7 119.05 1214.82 119.15 1211.84 118.57 1207.42 120.01 1205.69 122.32 1185.61 127.12 1173.89 127.41 1167.93 125.77 1164.67 126.06 1158.61 125.39 1152.08 125.87 1151.22 127.89 1144.01 127.6 1141.42 126.06 1139.49 125.68 1137 126.83 1133.15 126.64 1125.47 122.32 1109.81 114.53 1098.18 109.73 1090.69 105.69 1083.58 103.49 1075.41 100.12 1067.63 95.61 1063.79 91.86 1058.12 89.46 1055.43 85.11 1048.22 81.46 1038.04 65.24 1037.08 63.79 1031.99 62.26 1026.41 61.58 1009.19 58.66 969.37 58.66 938.94 62.47 889.75 63.96 5.94 94.01" stroke="#000000" stroke-width="1.5"/>
  <path d="M 1051.99 13.68 1055.8 21.02 1066.94 28.36 1089.22 30.53 1110.96 34.61 1145.74 43.03 1226.99 37.6 1274.01 29.44 1310.15 29.17 1335.96 32.71 1357.43 23.47 1366.45 14.17 1366.82 -3.36" stroke="#000000" stroke-width="1.5"/>
  <path d="M 1395.78 24.95 1406.89 40.86" stroke="#000000" stroke-width="1.5"/>
  <path d="M 1366.82 -3.36 1333.55 -50.22 1214.77 -31.97 1148.7 -8.57 1076.86 -17.31 1055.58 5.36 1051.99 13.68" stroke="#000000" stroke-width="1.5"/>
 </g>
</svg>