<svg xmlns:rdf="http://www.w3.org/1999/02/22-rdf-syntax-ns#" xmlns="http://www.w3.org/2000/svg" height="2000" width="2000" version="1.1" xmlns:cc="http://creativecommons.org/ns#" viewBox="0 0 2000 2000">
 <g transform="translate(0 947.638)" fill="none">
  <path d="M 2008.2 19.56 1537.11 27.08 1471.1 37.36 1440.17 39.18 1416.51 50.71 1411.37 54.18 1405.21 63.97 1400.13 74.13 1390.53 81.7 1383.6 97.29 1367.75 107.32 1345.1 107.81 1332.61 105.6 1324.45 107.33 1314.74 107.33 1311.48 105.31 1306.96 104.16 1301.68 104.25 1298.12 105.12 1272.47 105.98 1257.29 110.21 1254.89 109.15 1240 109.63 1231.35 113.96 1231.06 115.98 1227.7 119.05 1224.82 119.15 1221.84 118.57 1217.42 120.01 1215.69 122.32 1195.61 127.12 1183.89 127.41 1177.93 125.77 1174.67 126.06 1168.61 125.39 1162.08 125.87 1161.22 127.89 1154.01 127.6 1151.42 126.06 1149.49 125.68 1147 126.83 1143.15 126.64 1135.47 122.32 1119.81 114.53 1108.18 109.73 1100.69 105.69 1093.58 103.49 1085.41 100.12 1077.63 95.61 1073.79 91.86 1068.12 89.46 1065.43 85.11 1058.22 81.46 1048.04 65.24 1047.08 63.79 1041.99 62.26 1036.41 61.58 1019.19 58.66 979.37 58.66 948.94 62.47 899.75 63.96 15.94 94.01" stroke="#000000" stroke-width="1.5"/>
  <path d="M 1061.99 13.68 1065.8 21.02 1076.94 28.36 1099.22 30.53 1120.96 34.61 1155.74 43.03 1236.99 37.6 1284.01 29.44 1320.15 29.17 1345.96 32.71 1367.43 23.47 1376.45 14.17 1376.82 -3.36" stroke="#000000" stroke-width="1.5"/>
  <path d="M 1405.78 24.95 1416.89 40.86" stroke="#000000" stroke-width="1.5"/>
  <path d="M 1376.82 -3.36 1343.55 -50.22 1224.77 -31.97 1183.85 11.55 1086.86 -17.31 1065.58 5.36 1061.99 13.68" stroke="#000000" stroke-width="1.5"/>
 </g>
</svg>