<?xml version="1.0" encoding="UTF-8" standalone="no"?>
<!-- Created with Inkscape (http://www.inkscape.org/) -->

<svg


   xmlns:xlink="http://www.w3.org/1999/xlink"


   xmlns:dc="http://purl.org/dc/elements/1.1/"
   xmlns:cc="http://creativecommons.org/ns#"
   xmlns:rdf="http://www.w3.org/1999/02/22-rdf-syntax-ns#"
   xmlns:svg="http://www.w3.org/2000/svg"
   xmlns="http://www.w3.org/2000/svg"
   xmlns:sodipodi="http://sodipodi.sourceforge.net/DTD/sodipodi-0.dtd"
   xmlns:inkscape="http://www.inkscape.org/namespaces/inkscape"
   width="300mm"
   height="297mm"
   viewBox="-100 -100 900 1200"
   id="svg2"
   version="1.1"
   inkscape:version="0.91 r13725"
   sodipodi:docname="SineRiderSGLink.svg">
  <defs
     id="defs4" />
  <sodipodi:namedview
     id="base"
     pagecolor="#ffffff"
     bordercolor="#666666"
     borderopacity="1.0"
     inkscape:pageopacity="0.0"
     inkscape:pageshadow="2"
     inkscape:zoom="0.35"
     inkscape:cx="19.285714"
     inkscape:cy="520"
     inkscape:document-units="px"
     inkscape:current-layer="layer1"
     showgrid="false"
     inkscape:window-width="1920"
     inkscape:window-height="1017"
     inkscape:window-x="-8"
     inkscape:window-y="-8"
     inkscape:window-maximized="1" />
  <metadata
     id="metadata7">
    <rdf:RDF>
      <cc:Work
         rdf:about="">
        <dc:format>image/svg+xml</dc:format>
        <dc:type
           rdf:resource="http://purl.org/dc/dcmitype/StillImage" />
        <dc:title></dc:title>
      </cc:Work>
    </rdf:RDF>
  </metadata>
  <g
     inkscape:label="Layer 1"
     inkscape:groupmode="layer"
     id="layer1">

  <a xlink:href="SineRiderSG.html" target="_parent">
	<rect width="500" height="300" fill="#00FF00" id="playGame" style="stroke-width:3;stroke:rgb(0,0,0)" onclick="//alert('click!')" />
  </a>

    <a
       id="a3419">
      <g
         style="fill:none;stroke:#000000"
         transform="matrix(3.5433071,0,0,3.5433071,-8.1182857,84.260899)"
         id="g3340">
        <g
           style="stroke-linecap:round"
           id="g3342">
          <path
             style="stroke-width:6"
             inkscape:connector-curvature="0"
             d="m -8.9797,204.49 c 0,0 221.84,1.141 237.87,1.141 20.446,0 24.589,-27.395 0.13364,-41.56"
             id="path3344" />
          <path
             style="stroke-width:5"
             inkscape:connector-curvature="0"
             d="m 214.31,203.83 c 0,0 -20.406,-60.439 -22.49,-60.571 -2.1672,-0.13688 -57.374,57.616 -57.374,57.616"
             id="path3346" />
          <path
             style="stroke-width:5"
             inkscape:connector-curvature="0"
             d="m 132.51,202.86 c 0,0 -11.939,-25.116 -14.585,-40.802 -2.646,-15.686 1.8899,-28.159 6.2366,-35.53 4.3467,-7.3705 8.646,-12.65 8.646,-12.65 m -13.56,-19.667 c -3.0238,-12.095 -3.7798,-26.647 5.6696,-40.632 9.4494,-13.985 28.726,-19.844 44.223,-17.198 15.497,2.6458 23.812,18.143 24.001,31.939 0.18899,13.796 -4.7857,34.182 -17.387,43.845 -12.701,9.7396 -38.334,4.5445 -42.806,1.3229 -4.1577,-2.5513 -10.678,-7.1816 -13.702,-19.277 z"
             id="path3348" />
          <path
             style="stroke-width:4"
             inkscape:connector-curvature="0"
             d="m 129.83,119.16 c 0,0 25.135,27.781 28.159,28.348 3.0238,0.56697 41.199,7.3705 41.199,7.3705"
             id="path3350" />
          <path
             style="stroke-width:4"
             inkscape:connector-curvature="0"
             d="m 131.91,117.08 c 0,0 25.324,24.001 29.104,25.513 3.7798,1.5119 37.609,8.1265 37.609,8.1265"
             id="path3352" />
          <path
             style="stroke-width:5"
             inkscape:connector-curvature="0"
             d="m 26.892,199.39 c 0,0 73.65,-1.4241 75.162,-3.125 1.5119,-1.7009 -47.953,-49.585 -47.953,-49.585"
             id="path3354" />
        </g>
        <path
           style="stroke-width:5"
           inkscape:connector-curvature="0"
           d="m 51.499,87.129 c 0,0 -4.2728,11.918 -5.262,23.852 -1.0931,13.187 3.9318,29.953 7.7295,35.665"
           id="path3356" />
        <path
           style="stroke-width:5"
           inkscape:connector-curvature="0"
           d="m 50.271,87.601 c -9.0843,-9.0034 -6.865,-25.542 0.77765,-36.489 9.1458,-11.826 19.946,-19.59 33.618,-22.475 13.819,-2.9167 24.547,-0.09517 29.104,6.0476 5.3622,7.2284 5.701,22.363 -6.2366,39.876 -11.957,17.541 -44.79,22.49 -57.263,13.04 z"
           id="path3358" />
        <g
           style="stroke-linecap:round"
           id="g3360">
          <g
             style="stroke-width:4"
             id="g3362">
            <path
               inkscape:connector-curvature="0"
               d="m 50.082,93.649 c 0,0 24.379,33.262 27.592,35.341 3.2128,2.0789 41.01,8.3155 41.01,8.3155"
               id="path3364" />
            <path
               inkscape:connector-curvature="0"
               d="m 50.932,92.326 c 0,0 29.01,18.71 33.356,20.789 4.346,2.079 39.378,11.685 39.378,11.685"
               id="path3366" />
            <path
               inkscape:connector-curvature="0"
               d="m 49.024,68.841 c -3.2947,-2.7816 -7.1735,-5.6857 -13.083,2.0532 -5.964,7.8106 -12.034,18.359 -12.034,18.359"
               id="path3368" />
            <path
               inkscape:connector-curvature="0"
               d="m 50.918,61.24 c 0,0 -3.9474,-5.8583 -10.641,-1.9408 -7.3664,4.3113 -12.465,12.381 -17.119,19.311"
               id="path3370" />
            <path
               inkscape:connector-curvature="0"
               d="M 91.273,36.813 C 90.33756,29.1958 87.9451,21.484 80.449,20.51 68.632,18.9745 45.169,26.5236 32.073,32.136"
               id="path3372" />
            <path
               inkscape:connector-curvature="0"
               d="m 103.97,32.938 c 0,0 0.53453,-13.631 -11.76,-16.571 -12.294,-2.94 -40.358,4.5436 -41.961,5.3454"
               id="path3374" />
            <path
               inkscape:connector-curvature="0"
               d="m 79.914,44.43 c 0,0 1.338,-14.858 -10.691,-15.635 C 51.978,27.681 33.409,39.486 28.732,42.96"
               id="path3376" />
            <path
               inkscape:connector-curvature="0"
               d="m 68.956,47.638 c 0,0 0.96895,-9.5682 -5.3454,-11.493 -14.032,-4.2763 -36.883,15.101 -36.883,15.101"
               id="path3378" />
            <path
               inkscape:connector-curvature="0"
               d="m 85.794,41.223 c 0,0 -0.86351,-13.38 -6.8154,-15.903 -11.998,-5.0854 -37.952,5.6126 -37.952,5.6127"
               id="path3380" />
            <path
               inkscape:connector-curvature="0"
               d="m 61.205,50.31 c 0,0 -2.5383,-6.1226 -11.225,-5.7463 -11.207,0.48542 -24.57,13.459 -31.939,21.916"
               id="path3382" />
            <path
               inkscape:connector-curvature="0"
               d="m 55.993,55.923 c 0,0 -3.0359,-6.9907 -11.083,-4.0778 -12.86,4.6551 -27.07,23.254 -27.07,23.254"
               id="path3384" />
          </g>
          <path
             style="stroke-width:5"
             inkscape:connector-curvature="0"
             d="m 209.02,203.03 c 0,0 -29.459,-67.261 -32.861,-67.072 -3.4018,0.18899 -42.545,64.749 -42.545,64.749"
             id="path3386" />
        </g>
        <path
           style="stroke-width:5"
           inkscape:connector-curvature="0"
           d="m 53.917,146.86 c 6.4435,5.7115 52.056,32.238 51.867,36.584 0.0738,4.351 -64.689,18.668 -64.689,18.668"
           id="path3388" />
      </g>
    </a>
  </g>
</svg>
