<?xml version="1.0" encoding="UTF-8"?>
<!-- Created with Inkscape (http://www.inkscape.org/) -->
<svg width="210mm" height="297mm" version="1.1" viewBox="0 0 210 297" xmlns="http://www.w3.org/2000/svg" xmlns:cc="http://creativecommons.org/ns#" xmlns:dc="http://purl.org/dc/elements/1.1/" xmlns:rdf="http://www.w3.org/1999/02/22-rdf-syntax-ns#">
 <metadata>
  <rdf:RDF>
   <cc:Work rdf:about="">
    <dc:format>image/svg+xml</dc:format>
    <dc:type rdf:resource="http://purl.org/dc/dcmitype/StillImage"/>
    <dc:title/>
   </cc:Work>
  </rdf:RDF>
 </metadata>
 <g fill="none" stroke="#000">
  <g stroke-linecap="round">
   <path d="m-8.9797 204.49s221.84 1.141 237.87 1.141c20.446 0 24.589-27.395 0.13364-41.56" stroke-width="6"/>
   <path d="m214.31 203.83s-20.406-60.439-22.49-60.571c-2.1672-0.13688-57.374 57.616-57.374 57.616" stroke-width="5"/>
   <path d="m132.51 202.86s-11.939-25.116-14.585-40.802 1.8899-28.159 6.2366-35.53c4.3467-7.3705 8.646-12.65 8.646-12.65m-13.56-19.667c-3.0238-12.095-3.7798-26.647 5.6696-40.632 9.4494-13.985 28.726-19.844 44.223-17.198 15.497 2.6458 23.812 18.143 24.001 31.939 0.18899 13.796-4.7857 34.182-17.387 43.845-12.701 9.7396-38.334 4.5445-42.806 1.3229-4.1577-2.5513-10.678-7.1816-13.702-19.277z" stroke-width="5"/>
   <path d="m129.83 119.16s25.135 27.781 28.159 28.348c3.0238 0.56697 41.199 7.3705 41.199 7.3705" stroke-width="4"/>
   <path d="m131.91 117.08s25.324 24.001 29.104 25.513c3.7798 1.5119 37.609 8.1265 37.609 8.1265" stroke-width="4"/>
   <path d="m26.892 199.39s73.65-1.4241 75.162-3.125c1.5119-1.7009-47.953-49.585-47.953-49.585" stroke-width="5"/>
  </g>
  <path d="m51.499 87.129s-4.2728 11.918-5.262 23.852c-1.0931 13.187 3.9318 29.953 7.7295 35.665" stroke-width="5"/>
  <path d="m50.271 87.601c-9.0843-9.0034-6.865-25.542 0.77765-36.489 9.1458-11.826 19.946-19.59 33.618-22.475 13.819-2.9167 24.547-0.09517 29.104 6.0476 5.3622 7.2284 5.701 22.363-6.2366 39.876-11.957 17.541-44.79 22.49-57.263 13.04z" stroke-width="5"/>
  <g stroke-linecap="round">
   <g stroke-width="4">
    <path d="m50.082 93.649s24.379 33.262 27.592 35.341c3.2128 2.0789 41.01 8.3155 41.01 8.3155"/>
    <path d="m50.932 92.326s29.01 18.71 33.356 20.789 39.378 11.685 39.378 11.685"/>
    <path d="m49.024 68.841c-3.2947-2.7816-7.1735-5.6857-13.083 2.0532-5.964 7.8106-12.034 18.359-12.034 18.359"/>
    <path d="m50.918 61.24s-3.9474-5.8583-10.641-1.9408c-7.3664 4.3113-12.465 12.381-17.119 19.311"/>
    <path d="m91.273 36.813c-0.93544-7.6172-3.3279-15.329-10.824-16.303-11.817-1.5355-35.28 6.0136-48.376 11.626"/>
    <path d="m103.97 32.938s0.53453-13.631-11.76-16.571c-12.294-2.94-40.358 4.5436-41.961 5.3454"/>
    <path d="m79.914 44.43s1.338-14.858-10.691-15.635c-17.245-1.114-35.814 10.691-40.491 14.165"/>
    <path d="m68.956 47.638s0.96895-9.5682-5.3454-11.493c-14.032-4.2763-36.883 15.101-36.883 15.101"/>
    <path d="m85.794 41.223s-0.86351-13.38-6.8154-15.903c-11.998-5.0854-37.952 5.6126-37.952 5.6127"/>
    <path d="m61.205 50.31s-2.5383-6.1226-11.225-5.7463c-11.207 0.48542-24.57 13.459-31.939 21.916"/>
    <path d="m55.993 55.923s-3.0359-6.9907-11.083-4.0778c-12.86 4.6551-27.07 23.254-27.07 23.254"/>
   </g>
   <path d="m209.02 203.03s-29.459-67.261-32.861-67.072c-3.4018 0.18899-42.545 64.749-42.545 64.749" stroke-width="5"/>
  </g>
  <path d="m53.917 146.86c6.4435 5.7115 52.056 32.238 51.867 36.584 0.0738 4.351-64.689 18.668-64.689 18.668" stroke-width="5"/>
 </g>
</svg>
