<svg version="1.1" viewBox="0 0 1600 900" xmlns="http://www.w3.org/2000/svg">
	<g transform="translate(0 -152.36)">
		<rect id="Outline" x="190" y="188.36" width="1230" height="824" fill="none" stroke="#000" stroke-linecap="round" stroke-miterlimit="10" stroke-width="8"/>
		<g id="0Panel">
			<rect x="200" y="198.36" width="398" height="398" fill="none" stroke="#000" stroke-linecap="round" stroke-miterlimit="10" stroke-width="4"/>
			<g transform="matrix(.33191 0 0 .33191 215.6 247.62)">
				<g transform="matrix(1.9837 0 0 1.9837 165.26 308.68)" fill="none" stroke="#000">
					<g stroke-linecap="round">
						<path d="m-8.9797 204.49s221.84 1.141 237.87 1.141c20.446 0 24.589-27.395 0.13364-41.56" stroke-width="6"/>
						<path d="m214.31 203.83s-20.406-60.439-22.49-60.571c-2.1672-0.13688-57.374 57.616-57.374 57.616" stroke-width="5"/>
						<path d="m132.51 202.86s-11.939-25.116-14.585-40.802 1.8899-28.159 6.2366-35.53c4.3467-7.3705 8.646-12.65 8.646-12.65m-13.56-19.667c-3.0238-12.095-3.7798-26.647 5.6696-40.632 9.4494-13.985 28.726-19.844 44.223-17.198 15.497 2.6458 23.812 18.143 24.001 31.939 0.18899 13.796-4.7857 34.182-17.387 43.845-12.701 9.7396-38.334 4.5445-42.806 1.3229-4.1577-2.5513-10.678-7.1816-13.702-19.277z" stroke-width="5"/>
						<path d="m129.83 119.16s25.135 27.781 28.159 28.348c3.0238 0.56697 41.199 7.3705 41.199 7.3705" stroke-width="4"/>
						<path d="m131.91 117.08s25.324 24.001 29.104 25.513c3.7798 1.5119 37.609 8.1265 37.609 8.1265" stroke-width="4"/>
						<path d="m26.892 199.39s73.65-1.4241 75.162-3.125c1.5119-1.7009-47.953-49.585-47.953-49.585" stroke-width="5"/>
					</g>
					<path d="m51.499 87.129s-4.2728 11.918-5.262 23.852c-1.0931 13.187 3.9318 29.953 7.7295 35.665" stroke-width="5"/>
					<path d="m50.271 87.601c-9.0843-9.0034-6.865-25.542 0.77765-36.489 9.1458-11.826 19.946-19.59 33.618-22.475 13.819-2.9167 24.547-0.09517 29.104 6.0476 5.3622 7.2284 5.701 22.363-6.2366 39.876-11.957 17.541-44.79 22.49-57.263 13.04z" stroke-width="5"/>
					<g stroke-linecap="round">
						<g stroke-width="4">
							<path d="m50.082 93.649s24.379 33.262 27.592 35.341c3.2128 2.0789 41.01 8.3155 41.01 8.3155"/>
							<path d="m50.932 92.326s29.01 18.71 33.356 20.789 39.378 11.685 39.378 11.685"/>
							<path d="m49.024 68.841c-3.2947-2.7816-7.1735-5.6857-13.083 2.0532-5.964 7.8106-6.6675 23.566-6.6675 23.566"/>
							<path d="m50.918 61.24s-3.9474-5.8583-10.641-1.9408c-7.3664 4.3113-9.9124 15.702-12.091 34.539"/>
							<path d="m92.278 34.677c-2.8598-7.6172-8.0428-12.66-15.383-13.634-11.813-1.5675-38.443 6.9376-44.378 72.255"/>
							<path d="m99.682 33.103s-1.3985-10.064-13.693-13.004c-12.294-2.94-43.677 9.7095-49.389 73.42"/>
							<path d="m81.547 38.022s-3.5623-8.7014-12.324-9.2272c-17.25-1.0351-30.291 27.256-29.122 64.226"/>
							<path d="m71.594 42.36s-1.6697-4.291-7.984-6.2154c-14.032-4.2763-32.761 15.598-37.327 57.001"/>
							<path d="m86.422 36.825s-3.8018-7.9161-9.7536-10.439c-11.998-5.0854-34.221-7.7144-46.304 48.614"/>
							<path d="m61.205 50.31s-2.5383-6.1226-11.225-5.7463c-11.207 0.48542-13.352 8.7661-8.9453 50.591"/>
							<path d="m55.993 55.923s-3.0359-6.9907-11.083-4.0778c-12.86 4.6551-10.953 43.565-10.953 43.565"/>
						</g>
						<path d="m209.02 203.03s-29.459-67.261-32.861-67.072c-3.4018 0.18899-42.545 64.749-42.545 64.749" stroke-width="5"/>
					</g>
					<path d="m53.917 146.86c6.4435 5.7115 52.056 32.238 51.867 36.584 0.0738 4.351-64.689 18.668-64.689 18.668" stroke-width="5"/>
				</g>
			</g>
			<text x="387.14285" y="289.50488" fill="#000000" font-family="sans-serif" font-size="40px" letter-spacing="0px" word-spacing="0px" style="line-height:1.25" xml:space="preserve"><tspan x="387.14285" y="289.50488">0</tspan></text>
			<text id="1text" x="227.14285" y="245.21916" fill="#000000" font-family="sans-serif" font-size="26.667px" letter-spacing="0px" word-spacing="0px" style="line-height:1.25" xml:space="preserve"><tspan x="227.14285" y="245.21916" fill="#0000f0">words, words and other words</tspan></text>
		</g>
		<g id="1Panel">
			<rect x="606" y="198.36" width="398" height="398" fill="none" stroke="#000" stroke-linecap="round" stroke-miterlimit="10" stroke-width="4"/>
			<g transform="matrix(.27457 .18648 -.18648 .27457 759.4 157.85)">
				<g transform="matrix(1.9837 0 0 1.9837 165.26 308.68)" fill="none" stroke="#000">
					<g stroke-linecap="round">
						<path d="m-8.9797 204.49s221.84 1.141 237.87 1.141c20.446 0 24.589-27.395 0.13364-41.56" stroke-width="6"/>
						<path d="m214.31 203.83s-20.406-60.439-22.49-60.571c-2.1672-0.13688-57.374 57.616-57.374 57.616" stroke-width="5"/>
						<path d="m132.51 202.86s-11.939-25.116-14.585-40.802 1.8899-28.159 6.2366-35.53c4.3467-7.3705 8.646-12.65 8.646-12.65m-13.56-19.667c-3.0238-12.095-3.7798-26.647 5.6696-40.632 9.4494-13.985 28.726-19.844 44.223-17.198 15.497 2.6458 23.812 18.143 24.001 31.939 0.18899 13.796-4.7857 34.182-17.387 43.845-12.701 9.7396-38.334 4.5445-42.806 1.3229-4.1577-2.5513-10.678-7.1816-13.702-19.277z" stroke-width="5"/>
						<path d="m129.83 119.16s25.135 27.781 28.159 28.348c3.0238 0.56697 41.199 7.3705 41.199 7.3705" stroke-width="4"/>
						<path d="m131.91 117.08s25.324 24.001 29.104 25.513c3.7798 1.5119 37.609 8.1265 37.609 8.1265" stroke-width="4"/>
						<path d="m26.892 199.39s73.65-1.4241 75.162-3.125c1.5119-1.7009-47.953-49.585-47.953-49.585" stroke-width="5"/>
					</g>
					<path d="m51.499 87.129s-4.2728 11.918-5.262 23.852c-1.0931 13.187 3.9318 29.953 7.7295 35.665" stroke-width="5"/>
					<path d="m50.271 87.601c-9.0843-9.0034-6.865-25.542 0.77765-36.489 9.1458-11.826 19.946-19.59 33.618-22.475 13.819-2.9167 24.547-0.09517 29.104 6.0476 5.3622 7.2284 5.701 22.363-6.2366 39.876-11.957 17.541-44.79 22.49-57.263 13.04z" stroke-width="5"/>
					<g stroke-linecap="round">
						<g stroke-width="4">
							<path d="m50.082 93.649s24.379 33.262 27.592 35.341c3.2128 2.0789 41.01 8.3155 41.01 8.3155"/>
							<path d="m50.932 92.326s29.01 18.71 33.356 20.789 39.378 11.685 39.378 11.685"/>
							<path d="m49.024 68.841c-3.2947-2.7816-7.1735-5.6857-13.083 2.0532-5.964 7.8106-6.6675 23.566-6.6675 23.566"/>
							<path d="m50.918 61.24s-3.9474-5.8583-10.641-1.9408c-7.3664 4.3113-9.9124 15.702-12.091 34.539"/>
							<path d="m92.278 34.677c-2.8598-7.6172-8.0428-12.66-15.383-13.634-11.813-1.5675-38.443 6.9376-44.378 72.255"/>
							<path d="m99.682 33.103s-1.3985-10.064-13.693-13.004c-12.294-2.94-43.677 9.7095-49.389 73.42"/>
							<path d="m81.547 38.022s-3.5623-8.7014-12.324-9.2272c-17.25-1.0351-30.291 27.256-29.122 64.226"/>
							<path d="m71.594 42.36s-1.6697-4.291-7.984-6.2154c-14.032-4.2763-32.761 15.598-37.327 57.001"/>
							<path d="m86.422 36.825s-3.8018-7.9161-9.7536-10.439c-11.998-5.0854-34.221-7.7144-46.304 48.614"/>
							<path d="m61.205 50.31s-2.5383-6.1226-11.225-5.7463c-11.207 0.48542-13.352 8.7661-8.9453 50.591"/>
							<path d="m55.993 55.923s-3.0359-6.9907-11.083-4.0778c-12.86 4.6551-10.953 43.565-10.953 43.565"/>
						</g>
						<path d="m209.02 203.03s-29.459-67.261-32.861-67.072c-3.4018 0.18899-42.545 64.749-42.545 64.749" stroke-width="5"/>
					</g>
					<path d="m53.917 146.86c6.4435 5.7115 52.056 32.238 51.867 36.584 0.0738 4.351-64.689 18.668-64.689 18.668" stroke-width="5"/>
				</g>
			</g>
			<text id="2text" x="751.42859" y="262.36203" fill="#000000" font-family="sans-serif" font-size="40px" letter-spacing="0px" word-spacing="0px" style="line-height:1.25" xml:space="preserve"><tspan x="751.42859" y="262.36203">1</tspan></text>
			<text id="3text" x="806.42859" y="284.50488" fill="#000000" font-family="sans-serif" font-size="26.667px" letter-spacing="0px" word-spacing="0px" style="line-height:1.25" xml:space="preserve"><tspan x="806.42859" y="284.50488">cows</tspan></text>
		</g>
		<g id="2Panel">
			<rect x="1012" y="198.36" width="398" height="398" fill="none" stroke="#000" stroke-linecap="round" stroke-miterlimit="10" stroke-width="4"/>
			<g transform="matrix(.094015 .31832 -.31832 .094015 1351.7 284.54)">
				<g transform="matrix(1.9837 0 0 1.9837 165.26 308.68)" fill="none" stroke="#000">
					<g stroke-linecap="round">
						<path d="m-8.9797 204.49s221.84 1.141 237.87 1.141c20.446 0 24.589-27.395 0.13364-41.56" stroke-width="6"/>
						<path d="m214.31 203.83s-20.406-60.439-22.49-60.571c-2.1672-0.13688-57.374 57.616-57.374 57.616" stroke-width="5"/>
						<path d="m132.51 202.86s-11.939-25.116-14.585-40.802 1.8899-28.159 6.2366-35.53c4.3467-7.3705 8.646-12.65 8.646-12.65m-13.56-19.667c-3.0238-12.095-3.7798-26.647 5.6696-40.632 9.4494-13.985 28.726-19.844 44.223-17.198 15.497 2.6458 23.812 18.143 24.001 31.939 0.18899 13.796-4.7857 34.182-17.387 43.845-12.701 9.7396-38.334 4.5445-42.806 1.3229-4.1577-2.5513-10.678-7.1816-13.702-19.277z" stroke-width="5"/>
						<path d="m129.83 119.16s25.135 27.781 28.159 28.348c3.0238 0.56697 41.199 7.3705 41.199 7.3705" stroke-width="4"/>
						<path d="m131.91 117.08s25.324 24.001 29.104 25.513c3.7798 1.5119 37.609 8.1265 37.609 8.1265" stroke-width="4"/>
						<path d="m26.892 199.39s73.65-1.4241 75.162-3.125c1.5119-1.7009-47.953-49.585-47.953-49.585" stroke-width="5"/>
					</g>
					<path d="m51.499 87.129s-4.2728 11.918-5.262 23.852c-1.0931 13.187 3.9318 29.953 7.7295 35.665" stroke-width="5"/>
					<path d="m50.271 87.601c-9.0843-9.0034-6.865-25.542 0.77765-36.489 9.1458-11.826 19.946-19.59 33.618-22.475 13.819-2.9167 24.547-0.09517 29.104 6.0476 5.3622 7.2284 5.701 22.363-6.2366 39.876-11.957 17.541-44.79 22.49-57.263 13.04z" stroke-width="5"/>
					<g stroke-linecap="round">
						<g stroke-width="4">
							<path d="m50.082 93.649s24.379 33.262 27.592 35.341c3.2128 2.0789 41.01 8.3155 41.01 8.3155"/>
							<path d="m50.932 92.326s29.01 18.71 33.356 20.789 39.378 11.685 39.378 11.685"/>
							<path d="m49.024 68.841c-3.2947-2.7816-7.1735-5.6857-13.083 2.0532-5.964 7.8106-6.6675 23.566-6.6675 23.566"/>
							<path d="m50.918 61.24s-3.9474-5.8583-10.641-1.9408c-7.3664 4.3113-9.9124 15.702-12.091 34.539"/>
							<path d="m92.278 34.677c-2.8598-7.6172-8.0428-12.66-15.383-13.634-11.813-1.5675-38.443 6.9376-44.378 72.255"/>
							<path d="m99.682 33.103s-1.3985-10.064-13.693-13.004c-12.294-2.94-43.677 9.7095-49.389 73.42"/>
							<path d="m81.547 38.022s-3.5623-8.7014-12.324-9.2272c-17.25-1.0351-30.291 27.256-29.122 64.226"/>
							<path d="m71.594 42.36s-1.6697-4.291-7.984-6.2154c-14.032-4.2763-32.761 15.598-37.327 57.001"/>
							<path d="m86.422 36.825s-3.8018-7.9161-9.7536-10.439c-11.998-5.0854-34.221-7.7144-46.304 48.614"/>
							<path d="m61.205 50.31s-2.5383-6.1226-11.225-5.7463c-11.207 0.48542-13.352 8.7661-8.9453 50.591"/>
							<path d="m55.993 55.923s-3.0359-6.9907-11.083-4.0778c-12.86 4.6551-10.953 43.565-10.953 43.565"/>
						</g>
						<path d="m209.02 203.03s-29.459-67.261-32.861-67.072c-3.4018 0.18899-42.545 64.749-42.545 64.749" stroke-width="5"/>
					</g>
					<path d="m53.917 146.86c6.4435 5.7115 52.056 32.238 51.867 36.584 0.0738 4.351-64.689 18.668-64.689 18.668" stroke-width="5"/>
				</g>
			</g>
			<text id="4text" x="1168.5714" y="280.93344" fill="#000000" font-family="sans-serif" font-size="40px" letter-spacing="0px" word-spacing="0px" style="line-height:1.25" xml:space="preserve"><tspan x="1168.5714" y="280.93344">2</tspan></text>
		</g>
		<g id="3Panel">
			<rect x="200" y="604.36" width="398" height="398" fill="none" stroke="#000" stroke-linecap="round" stroke-miterlimit="10" stroke-width="4"/>
			<g transform="matrix(.33191 0 0 .33191 357.03 540.47)">
				<g transform="matrix(1.9837 0 0 1.9837 165.26 308.68)" fill="none" stroke="#000">
					<g stroke-linecap="round">
						<path d="m-8.9797 204.49s221.84 1.141 237.87 1.141c20.446 0 24.589-27.395 0.13364-41.56" stroke-width="6"/>
						<path d="m214.31 203.83s-20.406-60.439-22.49-60.571c-2.1672-0.13688-57.374 57.616-57.374 57.616" stroke-width="5"/>
						<path d="m132.51 202.86s-11.939-25.116-14.585-40.802 1.8899-28.159 6.2366-35.53c4.3467-7.3705 8.646-12.65 8.646-12.65m-13.56-19.667c-3.0238-12.095-3.7798-26.647 5.6696-40.632 9.4494-13.985 28.726-19.844 44.223-17.198 15.497 2.6458 23.812 18.143 24.001 31.939 0.18899 13.796-4.7857 34.182-17.387 43.845-12.701 9.7396-38.334 4.5445-42.806 1.3229-4.1577-2.5513-10.678-7.1816-13.702-19.277z" stroke-width="5"/>
						<path d="m129.83 119.16s25.135 27.781 28.159 28.348c3.0238 0.56697 41.199 7.3705 41.199 7.3705" stroke-width="4"/>
						<path d="m131.91 117.08s25.324 24.001 29.104 25.513c3.7798 1.5119 37.609 8.1265 37.609 8.1265" stroke-width="4"/>
						<path d="m26.892 199.39s73.65-1.4241 75.162-3.125c1.5119-1.7009-47.953-49.585-47.953-49.585" stroke-width="5"/>
					</g>
					<path d="m51.499 87.129s-4.2728 11.918-5.262 23.852c-1.0931 13.187 3.9318 29.953 7.7295 35.665" stroke-width="5"/>
					<path d="m50.271 87.601c-9.0843-9.0034-6.865-25.542 0.77765-36.489 9.1458-11.826 19.946-19.59 33.618-22.475 13.819-2.9167 24.547-0.09517 29.104 6.0476 5.3622 7.2284 5.701 22.363-6.2366 39.876-11.957 17.541-44.79 22.49-57.263 13.04z" stroke-width="5"/>
					<g stroke-linecap="round">
						<g stroke-width="4">
							<path d="m50.082 93.649s24.379 33.262 27.592 35.341c3.2128 2.0789 41.01 8.3155 41.01 8.3155"/>
							<path d="m50.932 92.326s29.01 18.71 33.356 20.789 39.378 11.685 39.378 11.685"/>
							<path d="m49.024 68.841c-3.2947-2.7816-7.1735-5.6857-13.083 2.0532-5.964 7.8106-6.6675 23.566-6.6675 23.566"/>
							<path d="m50.918 61.24s-3.9474-5.8583-10.641-1.9408c-7.3664 4.3113-9.9124 15.702-12.091 34.539"/>
							<path d="m92.278 34.677c-2.8598-7.6172-8.0428-12.66-15.383-13.634-11.813-1.5675-38.443 6.9376-44.378 72.255"/>
							<path d="m99.682 33.103s-1.3985-10.064-13.693-13.004c-12.294-2.94-43.677 9.7095-49.389 73.42"/>
							<path d="m81.547 38.022s-3.5623-8.7014-12.324-9.2272c-17.25-1.0351-30.291 27.256-29.122 64.226"/>
							<path d="m71.594 42.36s-1.6697-4.291-7.984-6.2154c-14.032-4.2763-32.761 15.598-37.327 57.001"/>
							<path d="m86.422 36.825s-3.8018-7.9161-9.7536-10.439c-11.998-5.0854-34.221-7.7144-46.304 48.614"/>
							<path d="m61.205 50.31s-2.5383-6.1226-11.225-5.7463c-11.207 0.48542-13.352 8.7661-8.9453 50.591"/>
							<path d="m55.993 55.923s-3.0359-6.9907-11.083-4.0778c-12.86 4.6551-10.953 43.565-10.953 43.565"/>
						</g>
						<path d="m209.02 203.03s-29.459-67.261-32.861-67.072c-3.4018 0.18899-42.545 64.749-42.545 64.749" stroke-width="5"/>
					</g>
					<path d="m53.917 146.86c6.4435 5.7115 52.056 32.238 51.867 36.584 0.0738 4.351-64.689 18.668-64.689 18.668" stroke-width="5"/>
				</g>
			</g>
			<text id="5text" x="290" y="676.64771" fill="#000000" font-family="sans-serif" font-size="40px" letter-spacing="0px" word-spacing="0px" style="line-height:1.25" xml:space="preserve"><tspan x="290" y="676.64771">3</tspan></text>
		</g>
		<g id="4Panel">
			<rect x="606" y="604.36" width="398" height="398" fill="none" stroke="#000" stroke-linecap="round" stroke-miterlimit="10" stroke-width="4"/>
			<text id="6text" x="718.57141" y="736.64771" fill="#000000" font-family="sans-serif" font-size="40px" letter-spacing="0px" word-spacing="0px" style="line-height:1.25" xml:space="preserve"><tspan x="718.57141" y="736.64771">4</tspan></text>
		</g>
		<g id="5Panel">
			<rect x="1012" y="604.36" width="398" height="398" fill="none" stroke="#000" stroke-linecap="round" stroke-miterlimit="10" stroke-width="4"/>
			<g transform="matrix(.32292 -.076711 .076711 .32292 1021.1 747.99)">
				<g transform="matrix(1.9837 0 0 1.9837 165.26 308.68)" fill="none" stroke="#000">
					<g stroke-linecap="round">
						<path d="m-8.9797 204.49s221.84 1.141 237.87 1.141c20.446 0 24.589-27.395 0.13364-41.56" stroke-width="6"/>
						<path d="m214.31 203.83s-20.406-60.439-22.49-60.571c-2.1672-0.13688-57.374 57.616-57.374 57.616" stroke-width="5"/>
						<path d="m132.51 202.86s-11.939-25.116-14.585-40.802 1.8899-28.159 6.2366-35.53c4.3467-7.3705 8.646-12.65 8.646-12.65m-13.56-19.667c-3.0238-12.095-3.7798-26.647 5.6696-40.632 9.4494-13.985 28.726-19.844 44.223-17.198 15.497 2.6458 23.812 18.143 24.001 31.939 0.18899 13.796-4.7857 34.182-17.387 43.845-12.701 9.7396-38.334 4.5445-42.806 1.3229-4.1577-2.5513-10.678-7.1816-13.702-19.277z" stroke-width="5"/>
						<path d="m129.83 119.16s25.135 27.781 28.159 28.348c3.0238 0.56697 41.199 7.3705 41.199 7.3705" stroke-width="4"/>
						<path d="m131.91 117.08s25.324 24.001 29.104 25.513c3.7798 1.5119 37.609 8.1265 37.609 8.1265" stroke-width="4"/>
						<path d="m26.892 199.39s73.65-1.4241 75.162-3.125c1.5119-1.7009-47.953-49.585-47.953-49.585" stroke-width="5"/>
					</g>
					<path d="m51.499 87.129s-4.2728 11.918-5.262 23.852c-1.0931 13.187 3.9318 29.953 7.7295 35.665" stroke-width="5"/>
					<path d="m50.271 87.601c-9.0843-9.0034-6.865-25.542 0.77765-36.489 9.1458-11.826 19.946-19.59 33.618-22.475 13.819-2.9167 24.547-0.09517 29.104 6.0476 5.3622 7.2284 5.701 22.363-6.2366 39.876-11.957 17.541-44.79 22.49-57.263 13.04z" stroke-width="5"/>
					<g stroke-linecap="round">
						<g stroke-width="4">
							<path d="m50.082 93.649s24.379 33.262 27.592 35.341c3.2128 2.0789 41.01 8.3155 41.01 8.3155"/>
							<path d="m50.932 92.326s29.01 18.71 33.356 20.789 39.378 11.685 39.378 11.685"/>
							<path d="m49.024 68.841c-3.2947-2.7816-7.1735-5.6857-13.083 2.0532-5.964 7.8106-6.6675 23.566-6.6675 23.566"/>
							<path d="m50.918 61.24s-3.9474-5.8583-10.641-1.9408c-7.3664 4.3113-9.9124 15.702-12.091 34.539"/>
							<path d="m92.278 34.677c-2.8598-7.6172-8.0428-12.66-15.383-13.634-11.813-1.5675-38.443 6.9376-44.378 72.255"/>
							<path d="m99.682 33.103s-1.3985-10.064-13.693-13.004c-12.294-2.94-43.677 9.7095-49.389 73.42"/>
							<path d="m81.547 38.022s-3.5623-8.7014-12.324-9.2272c-17.25-1.0351-30.291 27.256-29.122 64.226"/>
							<path d="m71.594 42.36s-1.6697-4.291-7.984-6.2154c-14.032-4.2763-32.761 15.598-37.327 57.001"/>
							<path d="m86.422 36.825s-3.8018-7.9161-9.7536-10.439c-11.998-5.0854-34.221-7.7144-46.304 48.614"/>
							<path d="m61.205 50.31s-2.5383-6.1226-11.225-5.7463c-11.207 0.48542-13.352 8.7661-8.9453 50.591"/>
							<path d="m55.993 55.923s-3.0359-6.9907-11.083-4.0778c-12.86 4.6551-10.953 43.565-10.953 43.565"/>
						</g>
						<path d="m209.02 203.03s-29.459-67.261-32.861-67.072c-3.4018 0.18899-42.545 64.749-42.545 64.749" stroke-width="5"/>
					</g>
					<path d="m53.917 146.86c6.4435 5.7115 52.056 32.238 51.867 36.584 0.0738 4.351-64.689 18.668-64.689 18.668" stroke-width="5"/>
				</g>
			</g>
			<text id="7text" x="1185.7144" y="682.362" fill="#000000" font-family="sans-serif" font-size="40px" letter-spacing="0px" word-spacing="0px" style="line-height:1.25" xml:space="preserve"><tspan x="1185.7144" y="682.362">5</tspan></text>
		</g>
		<g id="6Panel" transform="translate(0,-340)">
			<g id="1a" transform="translate(20,360)">
				<rect x="200" y="198.36" width="398" height="398" fill="none" stroke="#000" stroke-linecap="round" stroke-miterlimit="10" stroke-width="4"/>
				<g transform="matrix(.33191 0 0 .33191 298.46 193.33)">
					<g transform="matrix(1.9837 0 0 1.9837 165.26 308.68)" fill="none" stroke="#000">
						<g stroke-linecap="round">
							<path d="m-8.9797 204.49s221.84 1.141 237.87 1.141c20.446 0 24.589-27.395 0.13364-41.56" stroke-width="6"/>
							<path d="m214.31 203.83s-20.406-60.439-22.49-60.571c-2.1672-0.13688-57.374 57.616-57.374 57.616" stroke-width="5"/>
							<path d="m132.51 202.86s-11.939-25.116-14.585-40.802 1.8899-28.159 6.2366-35.53c4.3467-7.3705 8.646-12.65 8.646-12.65m-13.56-19.667c-3.0238-12.095-3.7798-26.647 5.6696-40.632 9.4494-13.985 28.726-19.844 44.223-17.198 15.497 2.6458 23.812 18.143 24.001 31.939 0.18899 13.796-4.7857 34.182-17.387 43.845-12.701 9.7396-38.334 4.5445-42.806 1.3229-4.1577-2.5513-10.678-7.1816-13.702-19.277z" stroke-width="5"/>
							<path d="m129.83 119.16s25.135 27.781 28.159 28.348c3.0238 0.56697 41.199 7.3705 41.199 7.3705" stroke-width="4"/>
							<path d="m131.91 117.08s25.324 24.001 29.104 25.513c3.7798 1.5119 37.609 8.1265 37.609 8.1265" stroke-width="4"/>
							<path d="m26.892 199.39s73.65-1.4241 75.162-3.125c1.5119-1.7009-47.953-49.585-47.953-49.585" stroke-width="5"/>
						</g>
						<path d="m51.499 87.129s-4.2728 11.918-5.262 23.852c-1.0931 13.187 3.9318 29.953 7.7295 35.665" stroke-width="5"/>
						<path d="m50.271 87.601c-9.0843-9.0034-6.865-25.542 0.77765-36.489 9.1458-11.826 19.946-19.59 33.618-22.475 13.819-2.9167 24.547-0.09517 29.104 6.0476 5.3622 7.2284 5.701 22.363-6.2366 39.876-11.957 17.541-44.79 22.49-57.263 13.04z" stroke-width="5"/>
						<g stroke-linecap="round">
							<g stroke-width="4">
								<path d="m50.082 93.649s24.379 33.262 27.592 35.341c3.2128 2.0789 41.01 8.3155 41.01 8.3155"/>
								<path d="m50.932 92.326s29.01 18.71 33.356 20.789 39.378 11.685 39.378 11.685"/>
								<path d="m49.024 68.841c-3.2947-2.7816-7.1735-5.6857-13.083 2.0532-5.964 7.8106-6.6675 23.566-6.6675 23.566"/>
								<path d="m50.918 61.24s-3.9474-5.8583-10.641-1.9408c-7.3664 4.3113-9.9124 15.702-12.091 34.539"/>
								<path d="m92.278 34.677c-2.8598-7.6172-8.0428-12.66-15.383-13.634-11.813-1.5675-38.443 6.9376-44.378 72.255"/>
								<path d="m99.682 33.103s-1.3985-10.064-13.693-13.004c-12.294-2.94-43.677 9.7095-49.389 73.42"/>
								<path d="m81.547 38.022s-3.5623-8.7014-12.324-9.2272c-17.25-1.0351-30.291 27.256-29.122 64.226"/>
								<path d="m71.594 42.36s-1.6697-4.291-7.984-6.2154c-14.032-4.2763-32.761 15.598-37.327 57.001"/>
								<path d="m86.422 36.825s-3.8018-7.9161-9.7536-10.439c-11.998-5.0854-34.221-7.7144-46.304 48.614"/>
								<path d="m61.205 50.31s-2.5383-6.1226-11.225-5.7463c-11.207 0.48542-13.352 8.7661-8.9453 50.591"/>
								<path d="m55.993 55.923s-3.0359-6.9907-11.083-4.0778c-12.86 4.6551-10.953 43.565-10.953 43.565"/>
							</g>
							<path d="m209.02 203.03s-29.459-67.261-32.861-67.072c-3.4018 0.18899-42.545 64.749-42.545 64.749" stroke-width="5"/>
						</g>
						<path d="m53.917 146.86c6.4435 5.7115 52.056 32.238 51.867 36.584 0.0738 4.351-64.689 18.668-64.689 18.668" stroke-width="5"/>
					</g>
				</g>
				<text id="8text" x="387.14285" y="289.50488" fill="#000000" font-family="sans-serif" font-size="40px" letter-spacing="0px" word-spacing="0px" style="line-height:1.25" xml:space="preserve"><tspan x="387.14285" y="289.50488">b0</tspan></text>
			</g>
		</g>
	</g>
</svg>
