<svg xmlns="http://www.w3.org/2000/svg" height="2000" width="2000" version="1.1" viewBox="0 0 2000 2000">
 <g transform="translate(0 1000)" fill="none">
  <path d="M 2000 -10.89 1268.15 -7.13 1235.15 -1.99 1219.68 -1.08 1207.85 4.69 1205.28 6.42 1202.2 11.32 1199.66 16.4 1194.86 20.18 1191.4 27.98 1183.47 32.99 1172.15 33.24 1165.9 32.13 1161.82 33 1156.97 33 1155.33 31.99 1153.08 31.41 1150.43 31.46 1148.66 31.89 1135.83 32.32 1128.24 34.44 1127.04 33.91 1119.59 34.15 1115.27 36.31 1115.13 37.32 1115.46 37.94 1113.44 38.86 1112 38.9 1110.51 38.62 1108.3 39.34 1107.44 40.49 1097.4 42.89 1091.54 43.04 1088.56 42.22 1086.93 42.36 1083.9 42.03 1080.63 42.27 1080.2 43.28 1076.6 43.13 1075.3 42.36 1074.34 42.17 1073.09 42.75 1071.17 42.65 1067.33 40.49 1059.5 36.6 1053.68 34.2 1049.94 32.18 1046.38 31.07 1042.3 29.39 1038.41 27.14 1036.49 25.26 1033.65 24.06 1032.31 21.89 1028.71 20.06 1023.61 11.95 1023.13 11.23 1020.59 10.46 1017.8 10.12 1009.19 8.66 989.28 8.66 974.06 10.56 949.47 11.31 0 26.34" stroke="#000000" stroke-width="1.5"/>
  <path d="M 1187.8 -13.58 1187.98 -22.34 1171.34 -45.78 1111.95 -36.65 1077.58 -37.19 1043 -29.32 1032.36 -17.99 1030.57 -13.83 1032.47 -10.16 1038.04 -6.49 1049.18 -5.4 1060.05 -3.36 1077.44 0.85 1118.07 -1.87 1141.58 -5.94 1159.65 -6.08 1172.55 -4.31 1183.29 -8.93 1187.8 -13.58" stroke="#000000" stroke-width="1.5"/>
  <circle id="Goal" cx="1222.1" cy="-13.9" r="8.7" stroke="#00B0FF"/>
 </g>
</svg>