<svg xmlns="http://www.w3.org/2000/svg" height="2000" width="2000" version="1.1" viewBox="0 0 2000 2000">
 <g transform="translate(0 1000)" fill="none">
  <path d="M 1542 -91.01 1599.62 -93.72 1619.54 -97.72 1628.74 -101.55 1635.14 -108.69 1630.56 -114.78 1623.37 -118.31 1607.65 -122.3 1546.57 -126.57 1516.13 -123.62 1486.72 -115.62 1482.66 -113.07 1480.98 -109.12 1481.96 -105.08 1485.87 -102.24 1513.39 -94.16 1542 -91.01" stroke="#000000" stroke-width="1.5"/>
  <path d="M 1602.41 -24.39 1514.1 -24.39" stroke="#000000" stroke-width="1.5"/>
  <path d="M 1676.7 -39.09 1671.81 -41.81 1668.52 -46.76 1667.61 -52.51 1668.26 -57.19 1670.33 -61.55 1673.71 -64.79 1678.27 -66.09 1682.42 -64.91 1685.57 -62.37 1687.7 -58.86 1688.79 -54.75 1688.83 -50.42 1687.79 -46.27 1685.66 -42.67 1682.43 -40 1676.7 -39.09" stroke="#000000" stroke-width="1.5"/>
  <path d="M 1439.5 -39.09 1444.39 -41.81 1447.68 -46.76 1448.59 -52.51 1447.94 -57.19 1445.87 -61.55 1442.49 -64.79 1437.93 -66.09 1433.78 -64.91 1430.63 -62.37 1428.5 -58.86 1427.41 -54.75 1427.37 -50.42 1428.41 -46.27 1430.54 -42.67 1433.77 -40 1439.5 -39.09" stroke="#000000" stroke-width="1.5"/>
  <path d="M 1668.52 -57.84 1582.33 -57.84 1577.25 -60.88 1566.36 -64.06 1554.9 -64.89 1543.68 -62.97 1533.54 -57.84 1447.4 -57.84" stroke="#000000" stroke-width="1.5"/>
  <path d="M 955.21 11.08 1011.21 11.07 999.46 -0.02 965.71 -0.02 954.57 11.08" stroke="#000000" stroke-width="1.5"/>
  <path d="M 1008.97 30.5 956.39 30.5" stroke="#000000" stroke-width="1.5"/>
  <path d="M 2000 333.28 0 333.28" stroke="#000000" stroke-width="1.5"/>
  <circle id="Goal" cx="1457.9" cy="-76.3" r="11.5" stroke="#00B0FF"/>
 </g>
</svg>