<svg xmlns="http://www.w3.org/2000/svg" width="2000" height="2000"><path fill="#fff" fill-opacity=".4" fill-rule="evenodd" d="M2000 1502.9V989.1l-731.9 3.8-33 5.1-15.4 1-11.8 5.7-2.6 1.7-3.1 5-2.5 5-4.8 3.8-3.5 7.8s-2.3 4.1-8 5c-8 1.2-11 .2-11.3.2-.1 0-4.6-1-6.2-1-1.6-.2-4 .8-4 .8h-5l-1.6-1-2.2-.6h-2.7l-1.7.5s-10.5 0-12.9.4c-2.3.5-7.6 2.1-7.6 2.1l-1.2-.5s-4.2-.3-7.4.2c-3.2.6-4.3 2.2-4.3 2.2l-.2 1 .4.6-2 1h-1.5l-1.5-.3-2.2.7-.9 1.2-10 2.4c-2 .6-5.9.1-5.9.1l-3-.8-1.6.2-3-.4-3.3.3-.4 1-3.6-.2-1.3-.7-1-.2-1.2.5h-2s-2.4-1.1-3.8-2.2-6.1-3.4-7.8-3.9a82 82 0 0 1-5.8-2.4l-3.8-2-3.5-1.1-4.1-1.7-3.9-2.3-2-1.8-2.7-1.2-1.4-2.2-3.6-1.8c-1.3-.7-5-8.2-5-8.2l-.6-.7s-2.2-.8-2.5-.7l-2.8-.4-.2.5s-5.9-2-8.4-2-17.1 0-20 0c-2.7.2-15.1 2-15.1 2l-24.6.7-949.5 15v474.5"/><path fill="none" stroke="#803300" d="M1009.2 1008.7c2.5 0 8.4 1.9 8.4 1.9l.2-.5 2.8.4 2.5.7.5.7s3.8 7.5 5.1 8.2l3.6 1.8 1.3 2.2 2.9 1.2 1.9 1.8 3.9 2.3a88.8 88.8 0 0 0 7.6 2.8l3.8 2s4.1 1.9 5.8 2.4c1.7.5 6.5 2.8 7.8 3.9 1.4 1 3.9 2.2 3.9 2.2h1.9l1.2-.5 1 .2 1.3.7 3.6.2.4-1 3.3-.3 3 .4 1.7-.2 3 .8s3.8.5 5.8-.1 10-2.4 10-2.4l.9-1.2 2.2-.7 1.5.3h1.4l2-1-.3-.6.2-1s1-1.6 4.3-2.2c3.2-.5 7.4-.2 7.4-.2l1.2.5s5.3-1.6 7.6-2c2.4-.5 12.9-.5 12.9-.5l1.7-.4h2.7l2.2.5 1.7 1h4.8s2.5-1 4.1-.9l6.2 1.1c.2 0 3.4 1 11.4-.2 5.6-.9 7.9-5 7.9-5l3.5-7.8 4.8-3.8 2.5-5 3-5 2.8-1.8"/><path fill="#fff" fill-opacity=".4" fill-rule="evenodd" stroke="#803300" d="M1032.5 982l-2 4.2 2 3.6 5.6 3.7 11.1 1.1s8.2 1.6 10.9 2c2.7.4 9.8 3.7 17.4 4.2 7.6.6 31.3-3.2 40.6-2.7 9.2.6 23.5-4 23.5-4l18-.2 13 1.8 10.7-4.6 4.5-4.7.4-8.8"/><g stroke="#2da523"><path fill="#fff" fill-opacity=".4" fill-rule="evenodd" d="M1032.5 982s3-7.7 10.6-11.3c7.4-3.7 25.7-7.4 34.5-7.9s22 1 34.4.5c12.3-.5 50.4-11.5 59.4-9 9 2.4 16.8 23.3 16.8 23.3"/><path fill="none" d="M1207.7 1004.8l12-5.9 15.4-.9 33-5.1L2000 989M0 1026.3l949.5-15 24.6-.7s12.4-1.8 15.2-2h19.9"/></g><g><path fill="#fff" fill-opacity=".4" fill-rule="evenodd" stroke="#8a421a" stroke-linecap="round" stroke-linejoin="round" stroke-opacity=".5" stroke-width="1.8" d="M1083.5 1081.6s8.2-43 8.4-59.9c-.2 17 10 63 10 63"/></g></svg>