<svg xmlns="http://www.w3.org/2000/svg" height="2000" width="2000" version="1.1" viewBox="0 0 2000 2000">
 <g transform="translate(0 1000)" fill="none">
  <path d="M 1100 1940 896.49 229.9" stroke="#000000" stroke-width="1.5"/>
  <path d="M 2859.54 -218.8 2774.35 -219.36 2672.91 -219.36 2528.79 -43.46 2435.3 -43.46 2426.38 -195.43 2370.6 -195.62 2372.29 -235.19 2299.4 -235.19 2208.76 -75.16 2132.7 -75.16 2058.56 -168.64 1973 -168.64 1906.03 -60.9 1826.8 -60.9 1826.23 134.01 1710.4 134.01 1627.91 -87.9 1368.9 -87.9 1286.36 -113.97 1219.7 -113.97 1168.06 -42.31 1086.4 -42.31 1085.38 229.98 896.49 229.9" stroke="#000000" stroke-width="1.5"/>
  <circle id="Goal" cx="2756.3" cy="-238.2" r="13.1" stroke="#00B0FF"/>
  <circle cx="1100" cy="-60" r="10" stroke="#00FF50"/>
  <circle cx="2041.3" cy="-184.2" r="13.1" stroke="#00FF50"/>
  <circle cx="1613.8" cy="-102.6" r="13.1" stroke="#00FF50"/>
  <circle cx="1271.5" cy="-129.2" r="13.1" stroke="#00FF50"/>
 </g>
</svg>