<svg version="1.1" viewBox="0 0 40000 40000" xmlns="http://www.w3.org/2000/svg">
	<g fill="#c8c8c8" stroke="#c8c8c8" stroke-opacity=".39216">
		<g fill-opacity=".39216" stroke-linejoin="round">
			<rect x="19582" y="19877" width="38.603" height="143.38" stroke-width=".5" style="paint-order:normal"/>
			<rect x="19645" y="19843" width="31.512" height="174.11" stroke-width=".5" style="paint-order:normal"/>
			<rect x="19677" y="19907" width="38.305" height="110.18" stroke-width=".38795" style="paint-order:normal"/>
			<rect x="19715" y="19855" width="122.45" height="164.11" stroke-width=".43606" style="paint-order:normal"/>
			<rect x="19877" y="19960" width="54.76" height="58.43" stroke-width=".47212" style="paint-order:normal"/>
			<rect x="19932" y="19868" width="37.453" height="152.06" stroke-width=".5" style="paint-order:normal"/>
			<rect x="2e4" y="19817" width="40.449" height="202.99" stroke-width=".5" style="paint-order:normal"/>
			<rect x="20041" y="19891" width="35.65" height="128.9" stroke-width=".39066" style="paint-order:normal"/>
			<rect x="20076" y="19861" width="35.955" height="158.05" stroke-width=".5" style="paint-order:normal"/>
			<rect x="20154" y="19786" width="34.456" height="226.21" stroke-width=".5" style="paint-order:normal"/>
			<rect x="20189" y="19804" width="30.612" height="207.21" stroke-width=".41261" style="paint-order:normal"/>
			<rect x="20219" y="19876" width="44.194" height="133.33" stroke-width=".5" style="paint-order:normal"/>
			<rect x="20320" y="19920" width="100.19" height="87.915" stroke-width=".5" style="paint-order:normal"/>
			<rect x="20332" y="19793" width="47.957" height="127.08" stroke-width=".48282" style="paint-order:normal"/>
		</g>
		<path d="m20420 20008 166.48-2.074 215.73 17.977 19238 38.951v19957s-40040 23.305-40040 0v-19971l19096-24.742 178.28-4.494 173.78 10.487 133.86-10.078h38.602l24.423-3.152 69.327 0.788h74.054l103.2 0.788h49.632l122.11 0.788h34.664l45.693-7.878h82.72l51.207-6.303h44.906l97.688 3.151" fill-opacity=".39216" stroke-width=".5"/>
	</g>
	<g transform="matrix(.32707 0 0 .32707 19216 19916)" fill="none" stroke="#637d60">
		<path d="m998.12 30.637 11.859 302.37-52.969-43.93 49.016-46.301-45.458-37.852 42.642-39.186-39.134-29.204 36.811-23.571-34.786-30.242 32.859-28.216-30.586-23.818h29.746l-30.783 23.867 32.76 28.265-35.033 30.242 36.713 23.472-39.233 29.155 42.148 39.383-45.755 37.703 49.179 46.245-53.132 43.838 13.292-302.17" stroke-linejoin="bevel" stroke-width=".78266"/>
		<g>
			<path d="m958.88 242.77h47.534" stroke-width=".78266"/>
			<path d="m960.66 205.2h44.52" stroke-width=".75744"/>
			<path d="m962.24 165.71h41.357" stroke-width=".73004"/>
			<path d="m963.63 136.5h38.64" stroke-width=".70565"/>
			<path d="m964.57 113.08h37.058" stroke-width=".69106"/>
			<path d="m965.95 82.738h34.341" stroke-width=".66524"/>
			<path d="m967.09 54.522h32.019" stroke-width=".64235"/>
			<path d="m956.86 289.03h51.536" stroke-width=".81495"/>
		</g>
	</g>
	<g transform="matrix(.32707 0 0 .32707 19216 19916)" fill="none" stroke="#91a6aa">
		<path d="m956.94 30.016h52.58" stroke-width="1.6367"/>
		<path d="m958.22 29.969v-21.419" stroke-width="1.5653"/>
		<g stroke-width=".39133px">
			<path d="m964.48 29.969v-8.8402"/>
			<path d="m970.74 29.969v-8.8402"/>
			<path d="m977 29.969v-8.8402"/>
			<path d="m983.26 29.969v-8.8402"/>
			<path d="m989.53 29.969v-8.8402"/>
			<path d="m995.79 29.969v-8.8402"/>
			<path d="m1002 29.969v-8.8402"/>
		</g>
		<path d="m1008.3 29.969v-21.419" stroke-width="1.5653"/>
		<path d="m958.11 21.419h50.238" stroke-width=".77483"/>
	</g>
	<g fill-rule="evenodd">
		<path d="m19581 19778c-6.025 8.009 6.45 14.284 14.619 8.024 3.642 13.012 28.191 10.237 26.129 1.287 1.378 4.487 22.791 11.873 23.319-1.402 6.465 4.235 23.638-2.05 11.1-11.816 4.209-8.92-6.303-20.801-18.744-12.529 2.707-11.119-27.053-11.275-28.099-1.706-6.434-11.976-21.865-4.95-20.338 3.343-8.889-5.403-26.13 11.245-7.986 14.799z" fill="#fff" stroke="#cbcbcb" stroke-width=".49993"/>
		<path d="m19528 19919 3.642-3.629h11.039l3.637 3.625z" fill="#91a6aa" stroke-width=".32707"/>
		<path d="m19783 19811c-8.023 5.084 1.906 16.125 10.168 9.135 1.423 11.382 17.577 5.844 17.317-0.715 0.803 4.225 14.467 7.217 15.172-5.958 5.365 3.044 17.498-2.043 7.625-10.803 6.739-8.527-0.571-15.443-10.088-8.658 2.895-9.347-19.3-13.021-20.494-3.654-7.904-7.243-22.242-2.383-17.475 7.387-10.374-2.95-14.845 9.22-2.225 13.266z" fill="#fff" stroke="#cbcbcb" stroke-width=".44484"/>
		<path d="m19724 19696c-19.206 10.84-30.459-7.749-17.793-13.139-18.082-4.671 3.322-26.922 9.808-16.671 2.676-15.876 25.159-13.841 30.895-1.472-1.851-11.972 30.375-22.838 30.935-3.178-0.592-11.457 30.718-26.07 38.57-2.244 13.421-18.936 28.64-9.664 33.087 4.204 12.359-10.015 27.705 11.212 12.325 14.978 14.924 9.385 2.168 23.448-5.681 14.378-5.754 12.182-19.623 9.031-24.19 0.652 1.61 9.125-26.153 18.86-29.616 1.707-1.069 13.462-39.2 22.399-41.42-1.422-0.493 10.404-34.771 16.244-36.92 2.207z" fill="#fff" stroke="#cbcbcb" stroke-width=".58925"/>
	</g>
	<g transform="translate(3.7453 -53.932)">
		<g transform="matrix(.47284 0 0 .47284 19201 19810)" fill="#fff" stroke="#8fa993">
			<rect x="1636.2" y="-61.081" width="37.754" height="17.046" stroke-linecap="round" stroke-width=".586"/>
			<ellipse transform="scale(-1,1)" cx="-1617.9" cy="-57.038" rx="29.916" ry="17.973" stroke-linejoin="bevel" stroke-width=".58567"/>
			<rect x="1442.2" y="-61.081" width="37.754" height="17.046" stroke-linecap="round" stroke-width=".586"/>
			<ellipse cx="1557.8" cy="-57.038" rx="27.057" ry="17.989" stroke-linejoin="bevel" stroke-width=".58567"/>
			<ellipse cx="1498.3" cy="-57.038" rx="29.916" ry="17.973" stroke-linejoin="bevel" stroke-width=".58567"/>
		</g>
		<g transform="matrix(.47284 0 0 .47284 19201 19810)" fill="none" stroke="#957676">
			<g stroke-width=".97612px">
				<path d="m1448.7-57.843h84.016"/>
				<path d="m1583.4-57.843h84.016"/>
				<path d="m1533.5-57.931c11.272-9.5003 37.185-8.9105 48.632 0"/>
			</g>
			<path d="m1449.2-63.958v4.1688h18.181l0.01-4.1503z" stroke-width=".97612"/>
		</g>
		<g transform="matrix(.47284 0 0 .47284 19201 19810)">
			<ellipse cx="1437.9" cy="-52.506" rx="10.666" ry="13.581" fill="#fff" stroke="#8fa993" stroke-linejoin="bevel" stroke-width=".58567"/>
			<ellipse cx="1557.8" cy="-52.506" rx="23.253" ry="13.444" fill="#fff" stroke="#8fa993" stroke-linejoin="bevel" stroke-width=".58567"/>
			<path d="m1666.9-63.958v4.1688h-18.181l-0.01-4.1503z" fill="none" stroke="#957676" stroke-width=".97612"/>
			<ellipse transform="scale(-1,1)" cx="-1678.3" cy="-52.506" rx="10.666" ry="13.581" fill="#fff" stroke="#8fa993" stroke-linejoin="bevel" stroke-width=".58567"/>
		</g>
		<g transform="matrix(.47284 0 0 .47284 19201 19810)" fill="none">
			<path d="m1628.2-101.03 20.358 42.934" stroke="#8c8c8c" stroke-width=".19522"/>
			<path d="m1530-57.669-15.416 32.657-56.563-32.657" stroke="#8c8c8c" stroke-width=".19522"/>
			<path d="m1514.1-24.388h88.311" stroke="#957676" stroke-width=".97612px"/>
		</g>
		<ellipse cx="19938" cy="19758" rx="36.53" ry="8.4118" fill="#fff" stroke="#8fa993" stroke-linejoin="bevel" stroke-width=".46535"/>
		<path d="m19905 19762-9.626 20.301" fill="none" stroke="#8c8c8c" stroke-width=".092307"/>
		<path d="m19951 19783 7.289 15.441 26.745-15.441" fill="none" stroke="#8c8c8c" stroke-width=".092307"/>
	</g>
	<path d="m19543 19916h0.413" fill="none" stroke="#000" stroke-width=".32707px"/>
	<g fill="#fff" fill-rule="evenodd" stroke="#cbcbcb">
		<path d="m20175 19738c-6.025 8.009 6.45 14.284 14.619 8.024 3.642 13.012 28.191 10.237 26.129 1.287 1.378 4.487 22.791 11.873 23.319-1.402 6.465 4.235 23.638-2.05 11.1-11.816 4.209-8.92-6.303-20.801-18.744-12.529 2.707-11.119-27.053-11.275-28.099-1.706-6.434-11.976-21.865-4.95-20.338 3.343-8.889-5.403-26.13 11.245-7.986 14.799z" stroke-width=".49993"/>
		<path d="m20050 19680c-8.023 5.084 1.906 16.125 10.168 9.135 1.423 11.382 17.577 5.844 17.317-0.715 0.803 4.225 14.467 7.217 15.172-5.958 5.365 3.044 17.498-2.043 7.625-10.803 6.739-8.527-0.571-15.443-10.088-8.658 2.895-9.347-19.3-13.021-20.494-3.654-7.904-7.243-22.242-2.383-17.475 7.387-10.374-2.95-14.845 9.22-2.225 13.266z" stroke-width=".44484"/>
		<path d="m20429 19725c-8.023 5.084 1.906 16.125 10.168 9.135 1.423 11.382 17.577 5.844 17.317-0.715 0.803 4.225 14.467 7.217 15.172-5.958 5.365 3.044 17.498-2.043 7.625-10.803 6.739-8.527-0.571-15.443-10.088-8.658 2.895-9.347-19.3-13.021-20.494-3.654-7.904-7.243-22.242-2.383-17.475 7.387-10.374-2.95-14.845 9.22-2.225 13.266z" stroke-width=".44484"/>
		<path d="m20291 19671c-19.206 10.84-30.459-7.749-17.793-13.139-18.082-4.671 3.322-26.922 9.808-16.671 2.676-15.876 25.159-13.841 30.895-1.472-1.851-11.972 30.375-22.838 30.935-3.178-0.592-11.457 30.718-26.07 38.57-2.244 13.421-18.936 28.64-9.664 33.087 4.204 12.359-10.015 27.705 11.212 12.325 14.978 14.924 9.385 2.168 23.448-5.681 14.378-5.754 12.182-19.623 9.031-24.19 0.652 1.61 9.125-26.153 18.86-29.616 1.707-1.069 13.462-39.2 22.399-41.42-1.422-0.493 10.404-34.771 16.244-36.92 2.207z" stroke-width=".58925"/>
	</g>
	<g transform="translate(417.22 -23.97)">
		<g transform="matrix(.47284 0 0 .47284 19201 19810)" fill="#fff" stroke="#8fa993">
			<rect x="1636.2" y="-61.081" width="37.754" height="17.046" stroke-linecap="round" stroke-width=".586"/>
			<ellipse transform="scale(-1,1)" cx="-1617.9" cy="-57.038" rx="29.916" ry="17.973" stroke-linejoin="bevel" stroke-width=".58567"/>
			<rect x="1442.2" y="-61.081" width="37.754" height="17.046" stroke-linecap="round" stroke-width=".586"/>
			<ellipse cx="1557.8" cy="-57.038" rx="27.057" ry="17.989" stroke-linejoin="bevel" stroke-width=".58567"/>
			<ellipse cx="1498.3" cy="-57.038" rx="29.916" ry="17.973" stroke-linejoin="bevel" stroke-width=".58567"/>
		</g>
		<g transform="matrix(.47284 0 0 .47284 19201 19810)" fill="none" stroke="#957676">
			<g stroke-width=".97612px">
				<path d="m1448.7-57.843h84.016"/>
				<path d="m1583.4-57.843h84.016"/>
				<path d="m1533.5-57.931c11.272-9.5003 37.185-8.9105 48.632 0"/>
			</g>
			<path d="m1449.2-63.958v4.1688h18.181l0.01-4.1503z" stroke-width=".97612"/>
		</g>
		<g transform="matrix(.47284 0 0 .47284 19201 19810)">
			<ellipse cx="1437.9" cy="-52.506" rx="10.666" ry="13.581" fill="#fff" stroke="#8fa993" stroke-linejoin="bevel" stroke-width=".58567"/>
			<ellipse cx="1557.8" cy="-52.506" rx="23.253" ry="13.444" fill="#fff" stroke="#8fa993" stroke-linejoin="bevel" stroke-width=".58567"/>
			<path d="m1666.9-63.958v4.1688h-18.181l-0.01-4.1503z" fill="none" stroke="#957676" stroke-width=".97612"/>
			<ellipse transform="scale(-1,1)" cx="-1678.3" cy="-52.506" rx="10.666" ry="13.581" fill="#fff" stroke="#8fa993" stroke-linejoin="bevel" stroke-width=".58567"/>
		</g>
		<g transform="matrix(.47284 0 0 .47284 19201 19810)" fill="none">
			<path d="m1628.2-101.03 20.358 42.934" stroke="#8c8c8c" stroke-width=".19522"/>
			<path d="m1530-57.669-15.416 32.657-56.563-32.657" stroke="#8c8c8c" stroke-width=".19522"/>
			<path d="m1514.1-24.388h88.311" stroke="#957676" stroke-width=".97612px"/>
		</g>
		<ellipse cx="19938" cy="19758" rx="36.53" ry="8.4118" fill="#fff" stroke="#8fa993" stroke-linejoin="bevel" stroke-width=".46535"/>
		<path d="m19905 19762-9.626 20.301" fill="none" stroke="#8c8c8c" stroke-width=".092307"/>
		<path d="m19951 19783 7.289 15.441 26.745-15.441" fill="none" stroke="#8c8c8c" stroke-width=".092307"/>
	</g>
</svg>
