<svg version="1.1" viewBox="0 0 2000 2000" xmlns="http://www.w3.org/2000/svg">
	<path d="M2000 1502.9V989.1l-731.9 3.8-33 5.1-15.4 1-11.8 5.7-2.6 1.7-3.1 5-2.5 5-4.8 3.8-3.5 7.8s-2.3 4.1-8 5c-8 1.2-11 .2-11.3.2-.1 0-4.6-1-6.2-1-1.6-.2-4 .8-4 .8h-5l-1.6-1-2.2-.6h-2.7l-1.7.5s-10.5 0-12.9.4c-2.3.5-7.6 2.1-7.6 2.1l-1.2-.5s-4.2-.3-7.4.2c-3.2.6-4.3 2.2-4.3 2.2l-.2 1 .4.6-2 1h-1.5l-1.5-.3-2.2.7-.9 1.2-10 2.4c-2 .6-5.9.1-5.9.1l-3-.8-1.6.2-3-.4-3.3.3-.4 1-3.6-.2-1.3-.7-1-.2-1.2.5h-2s-2.4-1.1-3.8-2.2-6.1-3.4-7.8-3.9a82 82 0 0 1-5.8-2.4l-3.8-2-3.5-1.1-4.1-1.7-3.9-2.3-2-1.8-2.7-1.2-1.4-2.2-3.6-1.8c-1.3-.7-5-8.2-5-8.2l-.6-.7s-2.2-.8-2.5-.7l-2.8-.4-.2.5s-5.9-2-8.4-2-17.1 0-20 0c-2.7.2-15.1 2-15.1 2l-24.6.7-949.5 15v474.5" fill="#fff" fill-rule="evenodd"/>
	<g fill="#c8c8c8" stroke="#c8c8c8" stroke-opacity=".39216">
		<g fill-opacity=".39216" stroke-linejoin="round">
			<rect x="226.88" y="1224.6" width="81.657" height="303.3" stroke-width="1.0577" style="paint-order:normal"/>
			<rect x="360.2" y="1152.9" width="66.659" height="368.29" stroke-width="1.0577" style="paint-order:normal"/>
			<rect x="427.26" y="1288.3" width="81.027" height="233.07" stroke-width=".82063" style="paint-order:normal"/>
			<rect x="509.32" y="1179" width="259.01" height="347.14" stroke-width=".92241" style="paint-order:normal"/>
			<rect x="850.82" y="1400.9" width="115.83" height="123.6" stroke-width=".99869" style="paint-order:normal"/>
			<rect x="967.31" y="1206" width="79.224" height="321.65" stroke-width="1.0577" style="paint-order:normal"/>
			<rect x="1111.5" y="1098.3" width="85.562" height="429.39" stroke-width="1.0577" style="paint-order:normal"/>
			<rect x="1197.7" y="1255.1" width="75.411" height="272.66" stroke-width=".82637" style="paint-order:normal"/>
			<rect x="1273.1" y="1191.8" width="76.055" height="334.33" stroke-width="1.0577" style="paint-order:normal"/>
			<rect x="1437.9" y="1031.7" width="72.886" height="478.51" stroke-width="1.0577" style="paint-order:normal"/>
			<rect x="1511.1" y="1071.3" width="64.755" height="438.31" stroke-width=".87279" style="paint-order:normal"/>
			<rect x="1575.8" y="1223.5" width="93.484" height="282.04" stroke-width="1.0577" style="paint-order:normal"/>
			<rect x="1788.1" y="1316.9" width="211.93" height="185.97" stroke-width="1.0577" style="paint-order:normal"/>
			<rect x="1813.4" y="1047.6" width="101.44" height="268.81" stroke-width="1.0213" style="paint-order:normal"/>
		</g>
		<path d="m1036.8 1495.9 8.1519-0.051 10.564 0.4364 942.07 0.9464v484.66s-1960.7 0.5662-1960.7 0v-485l935.1-0.6013 8.7303-0.1091 8.5097 0.2548 6.5545-0.2447h1.8906l1.196-0.077 3.3947 0.019h3.6265l5.0536 0.019h2.4305l5.9793 0.019h1.698l2.2373-0.1913h4.0502l2.5075-0.1529h2.1993l4.784 0.076" fill-opacity=".39216" stroke-width=".017242"/>
	</g>
	<g transform="matrix(.69185 0 0 .69185 -547.88 1307.2)" fill="none" stroke="#637d60">
		<path d="m998.12 30.637 11.859 302.37-52.969-43.93 49.016-46.301-45.458-37.852 42.642-39.186-39.134-29.204 36.811-23.571-34.786-30.242 32.859-28.216-30.586-23.818h29.746l-30.783 23.867 32.76 28.265-35.033 30.242 36.713 23.472-39.233 29.155 42.148 39.383-45.755 37.703 49.179 46.245-53.132 43.838 13.292-302.17" stroke-linejoin="bevel" stroke-width=".78266"/>
		<g>
			<path d="m958.88 242.77h47.534" stroke-width=".78266"/>
			<path d="m960.66 205.2h44.52" stroke-width=".75744"/>
			<path d="m962.24 165.71h41.357" stroke-width=".73004"/>
			<path d="m963.63 136.5h38.64" stroke-width=".70565"/>
			<path d="m964.57 113.08h37.058" stroke-width=".69106"/>
			<path d="m965.95 82.738h34.341" stroke-width=".66524"/>
			<path d="m967.09 54.522h32.019" stroke-width=".64235"/>
			<path d="m956.86 289.03h51.536" stroke-width=".81495"/>
		</g>
	</g>
	<g transform="matrix(.69185 0 0 .69185 -547.88 1307.2)" fill="none" stroke="#91a6aa">
		<path d="m956.94 30.016h52.58" stroke-width="1.6367"/>
		<path d="m958.22 29.969v-21.419" stroke-width="1.5653"/>
		<g stroke-width=".39133px">
			<path d="m964.48 29.969v-8.8402"/>
			<path d="m970.74 29.969v-8.8402"/>
			<path d="m977 29.969v-8.8402"/>
			<path d="m983.26 29.969v-8.8402"/>
			<path d="m989.53 29.969v-8.8402"/>
			<path d="m995.79 29.969v-8.8402"/>
			<path d="m1002 29.969v-8.8402"/>
		</g>
		<path d="m1008.3 29.969v-21.419" stroke-width="1.5653"/>
		<path d="m958.11 21.419h50.238" stroke-width=".77483"/>
	</g>
	<g fill-rule="evenodd">
		<path d="m224.32 1016.7c-12.745 16.942 13.644 30.215 30.924 16.973 7.704 27.524 59.633 21.654 55.271 2.7224 2.9149 9.4914 48.21 25.115 49.327-2.9657 13.676 8.9584 50.002-4.3363 23.48-24.994 8.9034-18.869-13.333-44.001-39.649-26.503 5.7262-23.52-57.226-23.85-59.438-3.6087-13.61-25.333-46.251-10.471-43.021 7.0715-18.803-11.429-55.273 23.787-16.893 31.304z" fill="#fff" stroke="#cbcbcb" stroke-width="1.0575"/>
		<path d="m112.92 1314.5 7.704-7.6765h23.351l7.6934 7.668z" fill="#91a6aa" stroke-width=".69185"/>
		<path d="m652.26 1085.7c-16.971 10.754 4.0318 34.109 21.508 19.323 3.0101 24.076 37.181 12.362 36.631-1.5125 1.6986 8.9372 30.602 15.266 32.094-12.603 11.349 6.439 37.014-4.3216 16.129-22.852 14.255-18.037-1.2078-32.667-21.339-18.314 6.1239-19.772-40.826-27.544-43.351-7.7293-16.719-15.321-47.049-5.0408-36.965 15.626-21.944-6.2402-31.402 19.503-4.7066 28.062z" fill="#fff" stroke="#cbcbcb" stroke-width=".94097"/>
		<path d="m528.37 843.33c-40.627 22.93-64.43-16.392-37.638-27.793-38.249-9.8806 7.0271-56.948 20.747-35.264 5.6606-33.583 53.219-29.278 65.352-3.1137-3.9154-25.325 64.253-48.309 65.437-6.7225-1.2523-24.235 64.978-55.146 81.588-4.7468 28.39-40.056 60.582-20.442 69.989 8.8928 26.143-21.185 58.605 23.717 26.071 31.683 31.569 19.852 4.586 49.6-12.017 30.414-12.172 25.769-41.509 19.103-51.169 1.3792 3.4057 19.302-55.322 39.895-62.647 3.6108-2.2613 28.476-82.92 47.381-87.616-3.008-1.0429 22.008-73.552 34.361-78.097 4.6685z" fill="#fff" stroke="#cbcbcb" stroke-width="1.2464"/>
	</g>
	<g transform="matrix(2.1153 0 0 2.1153 -41187 -40935)">
		<g transform="matrix(.47284 0 0 .47284 19201 19810)" fill="#fff" stroke="#8fa993">
			<rect x="1636.2" y="-61.081" width="37.754" height="17.046" stroke-linecap="round" stroke-width=".586"/>
			<ellipse transform="scale(-1,1)" cx="-1617.9" cy="-57.038" rx="29.916" ry="17.973" stroke-linejoin="bevel" stroke-width=".58567"/>
			<rect x="1442.2" y="-61.081" width="37.754" height="17.046" stroke-linecap="round" stroke-width=".586"/>
			<ellipse cx="1557.8" cy="-57.038" rx="27.057" ry="17.989" stroke-linejoin="bevel" stroke-width=".58567"/>
			<ellipse cx="1498.3" cy="-57.038" rx="29.916" ry="17.973" stroke-linejoin="bevel" stroke-width=".58567"/>
		</g>
		<g transform="matrix(.47284 0 0 .47284 19201 19810)" fill="none" stroke="#957676">
			<g stroke-width=".97612px">
				<path d="m1448.7-57.843h84.016"/>
				<path d="m1583.4-57.843h84.016"/>
				<path d="m1533.5-57.931c11.272-9.5003 37.185-8.9105 48.632 0"/>
			</g>
			<path d="m1449.2-63.958v4.1688h18.181l0.01-4.1503z" stroke-width=".97612"/>
		</g>
		<g transform="matrix(.47284 0 0 .47284 19201 19810)">
			<ellipse cx="1437.9" cy="-52.506" rx="10.666" ry="13.581" fill="#fff" stroke="#8fa993" stroke-linejoin="bevel" stroke-width=".58567"/>
			<ellipse cx="1557.8" cy="-52.506" rx="23.253" ry="13.444" fill="#fff" stroke="#8fa993" stroke-linejoin="bevel" stroke-width=".58567"/>
			<path d="m1666.9-63.958v4.1688h-18.181l-0.01-4.1503z" fill="none" stroke="#957676" stroke-width=".97612"/>
			<ellipse transform="scale(-1,1)" cx="-1678.3" cy="-52.506" rx="10.666" ry="13.581" fill="#fff" stroke="#8fa993" stroke-linejoin="bevel" stroke-width=".58567"/>
		</g>
		<g transform="matrix(.47284 0 0 .47284 19201 19810)" fill="none">
			<path d="m1628.2-101.03 20.358 42.934" stroke="#8c8c8c" stroke-width=".19522"/>
			<path d="m1530-57.669-15.416 32.657-56.563-32.657" stroke="#8c8c8c" stroke-width=".19522"/>
			<path d="m1514.1-24.388h88.311" stroke="#957676" stroke-width=".97612px"/>
		</g>
		<ellipse cx="19938" cy="19758" rx="36.53" ry="8.4118" fill="#fff" stroke="#8fa993" stroke-linejoin="bevel" stroke-width=".46535"/>
		<path d="m19905 19762-9.626 20.301" fill="none" stroke="#8c8c8c" stroke-width=".092307"/>
		<path d="m19951 19783 7.289 15.441 26.745-15.441" fill="none" stroke="#8c8c8c" stroke-width=".092307"/>
	</g>
	<path d="m143.97 1306.8h0.8736" fill="none" stroke="#000" stroke-width=".69185px"/>
	<g fill="#fff" fill-rule="evenodd" stroke="#cbcbcb">
		<path d="m1480.8 931.17c-12.745 16.942 13.644 30.215 30.924 16.973 7.704 27.524 59.633 21.654 55.271 2.7224 2.9149 9.4914 48.21 25.115 49.327-2.9657 13.676 8.9584 50.002-4.3364 23.48-24.995 8.9034-18.869-13.333-44.001-39.649-26.503 5.7262-23.52-57.226-23.85-59.438-3.6087-13.61-25.333-46.251-10.471-43.021 7.0715-18.803-11.429-55.273 23.787-16.893 31.304z" stroke-width="1.0575"/>
		<path d="m1216.3 808.38c-16.971 10.754 4.0318 34.109 21.508 19.323 3.0101 24.076 37.181 12.362 36.631-1.5124 1.6986 8.9372 30.602 15.266 32.094-12.603 11.349 6.439 37.014-4.3216 16.129-22.852 14.255-18.037-1.2078-32.667-21.339-18.314 6.1239-19.772-40.826-27.543-43.351-7.7294-16.719-15.321-47.049-5.0408-36.965 15.626-21.944-6.2402-31.402 19.503-4.7066 28.062z" stroke-width=".94097"/>
		<path d="m2019.7 903.45c-16.971 10.754 4.0317 34.109 21.508 19.323 3.0101 24.076 37.181 12.362 36.631-1.5124 1.6986 8.9372 30.602 15.266 32.094-12.603 11.349 6.439 37.014-4.3216 16.129-22.852 14.255-18.037-1.2079-32.667-21.339-18.314 6.1238-19.772-40.826-27.543-43.351-7.7294-16.719-15.321-47.049-5.0408-36.965 15.626-21.944-6.2402-31.402 19.503-4.7065 28.062z" stroke-width=".94097"/>
		<path d="m1727.8 789.46c-40.627 22.93-64.43-16.392-37.638-27.793-38.249-9.8806 7.0271-56.948 20.747-35.264 5.6606-33.583 53.219-29.278 65.353-3.1137-3.9155-25.325 64.253-48.309 65.437-6.7225-1.2522-24.235 64.978-55.146 81.588-4.7468 28.39-40.056 60.582-20.442 69.989 8.8928 26.143-21.185 58.605 23.717 26.071 31.683 31.569 19.852 4.5859 49.6-12.017 30.414-12.172 25.769-41.509 19.103-51.169 1.3792 3.4056 19.302-55.322 39.895-62.647 3.6108-2.2613 28.476-82.92 47.381-87.616-3.008-1.0429 22.008-73.552 34.361-78.097 4.6685z" stroke-width="1.2464"/>
	</g>
	<g transform="matrix(2.1153 0 0 2.1153 -40312 -40872)">
		<g transform="matrix(.47284 0 0 .47284 19201 19810)" fill="#fff" stroke="#8fa993">
			<rect x="1636.2" y="-61.081" width="37.754" height="17.046" stroke-linecap="round" stroke-width=".586"/>
			<ellipse transform="scale(-1,1)" cx="-1617.9" cy="-57.038" rx="29.916" ry="17.973" stroke-linejoin="bevel" stroke-width=".58567"/>
			<rect x="1442.2" y="-61.081" width="37.754" height="17.046" stroke-linecap="round" stroke-width=".586"/>
			<ellipse cx="1557.8" cy="-57.038" rx="27.057" ry="17.989" stroke-linejoin="bevel" stroke-width=".58567"/>
			<ellipse cx="1498.3" cy="-57.038" rx="29.916" ry="17.973" stroke-linejoin="bevel" stroke-width=".58567"/>
		</g>
		<g transform="matrix(.47284 0 0 .47284 19201 19810)" fill="none" stroke="#957676">
			<g stroke-width=".97612px">
				<path d="m1448.7-57.843h84.016"/>
				<path d="m1583.4-57.843h84.016"/>
				<path d="m1533.5-57.931c11.272-9.5003 37.185-8.9105 48.632 0"/>
			</g>
			<path d="m1449.2-63.958v4.1688h18.181l0.01-4.1503z" stroke-width=".97612"/>
		</g>
		<g transform="matrix(.47284 0 0 .47284 19201 19810)">
			<ellipse cx="1437.9" cy="-52.506" rx="10.666" ry="13.581" fill="#fff" stroke="#8fa993" stroke-linejoin="bevel" stroke-width=".58567"/>
			<ellipse cx="1557.8" cy="-52.506" rx="23.253" ry="13.444" fill="#fff" stroke="#8fa993" stroke-linejoin="bevel" stroke-width=".58567"/>
			<path d="m1666.9-63.958v4.1688h-18.181l-0.01-4.1503z" fill="none" stroke="#957676" stroke-width=".97612"/>
			<ellipse transform="scale(-1,1)" cx="-1678.3" cy="-52.506" rx="10.666" ry="13.581" fill="#fff" stroke="#8fa993" stroke-linejoin="bevel" stroke-width=".58567"/>
		</g>
		<g transform="matrix(.47284 0 0 .47284 19201 19810)" fill="none">
			<path d="m1628.2-101.03 20.358 42.934" stroke="#8c8c8c" stroke-width=".19522"/>
			<path d="m1530-57.669-15.416 32.657-56.563-32.657" stroke="#8c8c8c" stroke-width=".19522"/>
			<path d="m1514.1-24.388h88.311" stroke="#957676" stroke-width=".97612px"/>
		</g>
		<ellipse cx="19938" cy="19758" rx="36.53" ry="8.4118" fill="#fff" stroke="#8fa993" stroke-linejoin="bevel" stroke-width=".46535"/>
		<path d="m19905 19762-9.626 20.301" fill="none" stroke="#8c8c8c" stroke-width=".092307"/>
		<path d="m19951 19783 7.289 15.441 26.745-15.441" fill="none" stroke="#8c8c8c" stroke-width=".092307"/>
	</g>
</svg>
