<svg version="1.1" viewBox="0 0 2e3 2e3" xmlns="http://www.w3.org/2000/svg">
	<g transform="translate(0 947.64)" fill="none" stroke="#000">
		<path d="m0 78.696 949.47-15.024 24.593-0.74728 15.218-1.9022h19.905l8.6145 1.4618 2.7862 0.33626 2.546 0.7686 0.4803 0.72056 5.0921 8.1107 3.6029 1.8254 1.345 2.1752 2.8343 1.2009 1.9215 1.8735 3.8911 2.2578 4.0832 1.6813 3.5548 1.1049 3.747 2.0176 5.8127 2.4019 7.8302 3.891 3.843 2.1617 1.9216 0.0961 1.2489-0.57644 0.9608 0.19214 1.297 0.76861 3.6029 0.1441 0.4324-1.0088 3.2665-0.24019 3.0264 0.33626 1.6333-0.14411 2.9784 0.81663 5.8606-0.1441 10.04-2.4019 0.8647-1.1529 2.2098-0.72056 1.4891 0.28822 1.4412-0.048 2.0176-0.9127-0.3363-0.62449 0.1441-1.0088 4.3235-2.1617 7.4459-0.24018 1.2009 0.5284 7.5901-2.1136 12.826-0.43233 1.7774-0.43233 2.6421-0.048 2.2577 0.57645 1.6333 1.0088h4.8519l4.0832-0.86467 6.245 1.1048 11.322-0.24559 7.9272-5.0115 3.4649-7.7949 4.7994-3.7885 2.5388-5.0776 3.0829-4.8963 2.5692-1.7327 11.827-5.7659 15.468-0.91271 33.002-5.14 731.85-3.7593"/>
		<circle cx="1026.4" cy="52.47" r="8.6607" stroke-width=".94488"/>
	</g>
</svg>
