<svg version="1.1" viewBox="0 0 2000 2000" xmlns="http://www.w3.org/2000/svg">
	<path d="m1098.1 897.29 7.116 33.707 4.1198 71.535-5.2434 78.276-4.8689 19.475-4.8688-1.8726-6.7415-23.97-11.236 38.951-13.483 13.858-7.4905 22.472 1.1236 19.85-4.1198-7.116-3.3708-23.221-9.7377-30.337-8.6141 7.116-12.359 4.8688-9.3631 14.232-6.367 21.723 1.8726 18.352-1.8726 3.7453-5.9924-11.236-8.2396-18.352-16.854-32.209-12.734-16.105-21.723-14.232-2.6217 6.3669-4.4943 17.603-5.6179-13.483-5.6179-18.726-10.112-17.228-5.6179 2.9963-11.236-1.1236-5.6179-15.356-3.3707-23.595 3.3707-68.538 7.8651-38.951 11.985-25.093 44.194-4.1198 39.7 2.9962 34.082-3.3708 37.453 4.4943 36.704 5.6179" fill="none" stroke="#000" stroke-width="1px"/>
</svg>
