<svg xmlns="http://www.w3.org/2000/svg" height="2000" width="2000" version="1.1" viewBox="0 0 2000 2000">
 <g transform="translate(0 1000)" fill="none">
  <path d="M 1098.1 -102.71 1061.4 -108.33 1023.94 -112.82 989.86 -109.45 950.16 -112.45 905.97 -108.33 893.98 -83.23 886.12 -44.28 882.75 24.26 886.12 47.85 891.74 63.21 902.97 64.33 908.59 61.33 918.7 78.56 924.32 97.29 929.94 110.77 934.43 93.17 937.05 86.8 958.78 101.03 971.51 117.14 988.36 149.35 996.6 167.7 1002.6 178.93 1004.47 175.19 1002.6 156.84 1008.96 135.11 1018.33 120.88 1030.68 116.01 1039.3 108.9 1049.04 139.23 1052.41 162.46 1056.53 169.57 1055.4 149.72 1062.89 127.25 1076.38 113.39 1087.61 74.44 1094.35 98.41 1099.22 100.28 1104.09 80.81 1109.34 2.53 1105.22 -69 1098.1 -102.71" stroke="#000000" stroke-width="1.5"/>
  <circle id="Goal" cx="870" cy="-100" r="15" stroke="#00B0FF"/>
 </g>
</svg>