<?xml version="1.0" encoding="UTF-8" standalone="no"?>
<!-- Created with Inkscape (http://www.inkscape.org/) -->

<svg
   xmlns:dc="http://purl.org/dc/elements/1.1/"
   xmlns:cc="http://creativecommons.org/ns#"
   xmlns:rdf="http://www.w3.org/1999/02/22-rdf-syntax-ns#"
   xmlns:svg="http://www.w3.org/2000/svg"
   xmlns="http://www.w3.org/2000/svg"
   xmlns:sodipodi="http://sodipodi.sourceforge.net/DTD/sodipodi-0.dtd"
   xmlns:inkscape="http://www.inkscape.org/namespaces/inkscape"
   width="2000"
   height="2000"
   viewBox="0 0 2000 2000"
   id="svg2"
   version="1.1"
   inkscape:version="0.92.0 r15299"
   sodipodi:docname="TowerCollidersWorking.svg">
  <defs
     id="defs4" />
  <sodipodi:namedview
     id="base"
     pagecolor="#ffffff"
     bordercolor="#666666"
     borderopacity="1.0"
     inkscape:pageopacity="0.0"
     inkscape:pageshadow="2"
     inkscape:zoom="11.2"
     inkscape:cx="1452.5759"
     inkscape:cy="1070.3991"
     inkscape:document-units="px"
     inkscape:current-layer="layer1"
     showgrid="false"
     units="px"
     inkscape:window-width="1920"
     inkscape:window-height="1017"
     inkscape:window-x="-8"
     inkscape:window-y="-8"
     inkscape:window-maximized="1" />
  <metadata
     id="metadata7">
    <rdf:RDF>
      <cc:Work
         rdf:about="">
        <dc:format>image/svg+xml</dc:format>
        <dc:type
           rdf:resource="http://purl.org/dc/dcmitype/StillImage" />
        <dc:title />
      </cc:Work>
    </rdf:RDF>
  </metadata>
  <g
     inkscape:label="Layer 1"
     inkscape:groupmode="layer"
     id="layer1"
     transform="translate(0,1000)">
    <path
       style="fill:none;fill-rule:evenodd;stroke:#000000;stroke-width:1;stroke-linecap:butt;stroke-linejoin:miter;stroke-miterlimit:4;stroke-dasharray:none;stroke-opacity:1"
       d="M 0,333.28178 H 2000"
       id="path4158"
       inkscape:connector-curvature="0"
       sodipodi:nodetypes="cc" />
    <path
       inkscape:connector-curvature="0"
       id="path4160"
       d="M 956.39382,30.49907 H 1008.974"
       style="fill:none;fill-rule:evenodd;stroke:#000000;stroke-width:0.50000012;stroke-linecap:butt;stroke-linejoin:miter;stroke-miterlimit:4;stroke-dasharray:none;stroke-opacity:1" />
    <path
       style="fill:none;fill-opacity:1;fill-rule:evenodd;stroke:#000000;stroke-width:0.50000012;stroke-linecap:butt;stroke-linejoin:miter;stroke-miterlimit:4;stroke-dasharray:none;stroke-opacity:1"
       d="m 954.56847,11.07794 11.13685,-11.09316 h 33.75118 l 11.7556,11.08416 -56.00747,0.009"
       id="path4165"
       inkscape:connector-curvature="0"
       sodipodi:nodetypes="ccccc" />
    <path
       style="fill:none;fill-rule:evenodd;stroke:#000000;stroke-width:1;stroke-linecap:butt;stroke-linejoin:miter;stroke-miterlimit:4;stroke-dasharray:none;stroke-opacity:1"
       d="m 1447.408,-57.843492 h 86.1364 l 10.1443,-5.131531 11.2171,-1.911564 11.4653,0.829418 10.8899,3.178566 5.0778,3.035111 h 86.1892"
       id="path4164"
       inkscape:connector-curvature="0"
       sodipodi:nodetypes="cccccccc" />
    <path
       style="fill:none;fill-opacity:1;stroke:#000000;stroke-width:1;stroke-linecap:butt;stroke-linejoin:bevel;stroke-miterlimit:4;stroke-dasharray:none;stroke-opacity:1"
       d="m 1439.4616,-39.088266 -5.7258,-0.908021 -3.2386,-2.671208 -2.1278,-3.603487 -1.0356,-4.153934 0.038,-4.322548 1.0931,-4.109336 2.1296,-3.514276 3.1477,-2.537417 4.1471,-1.178667 4.5637,1.296932 3.3776,3.23516 2.0733,4.364469 0.6508,4.68493 -0.911,5.747573 -3.2886,4.944181 -4.8935,2.725649"
       id="ellipse4173"
       inkscape:connector-curvature="0"
       sodipodi:nodetypes="ccccccccccccccccc" />
    <path
       style="fill:none;fill-opacity:1;stroke:#000000;stroke-width:1;stroke-linecap:butt;stroke-linejoin:bevel;stroke-miterlimit:4;stroke-dasharray:none;stroke-opacity:1"
       d="m 1676.6872,-39.088247 5.7258,-0.90804 3.2386,-2.671208 2.1278,-3.603487 1.0356,-4.153934 -0.038,-4.322548 -1.0931,-4.109336 -2.1296,-3.514276 -3.1477,-2.537417 -4.1471,-1.178667 -4.5637,1.296932 -3.3775,3.23516 -2.0733,4.364504 -0.651,4.684895 0.9111,5.747573 3.2885,4.944181 4.8935,2.725668"
       id="ellipse4187"
       inkscape:connector-curvature="0"
       sodipodi:nodetypes="ccccccccccccccccc" />
    <path
       style="fill:none;fill-rule:evenodd;stroke:#000000;stroke-width:1;stroke-linecap:butt;stroke-linejoin:miter;stroke-opacity:1;stroke-miterlimit:4;stroke-dasharray:none"
       d="m 1514.0953,-24.388192 h 88.311"
       id="path4199"
       inkscape:connector-curvature="0" />
    <path
       style="fill:none;fill-opacity:1;stroke:#000000;stroke-width:1;stroke-linecap:butt;stroke-linejoin:bevel;stroke-miterlimit:4;stroke-dasharray:none;stroke-opacity:1"
       d="m 1541.9597,-91.011312 -28.6079,-3.151553 -27.5203,-8.082275 -3.9101,-2.83047 -0.982,-4.04692 1.676,-3.95175 4.0642,-2.54497 29.4068,-8.0035 30.4415,-2.95174 61.0806,4.27645 15.7204,3.98631 7.1901,3.52726 4.5762,6.09298 -6.3927,7.1408 -9.2049,3.82887 -19.9173,4.000104 -57.6206,2.710404"
       id="ellipse4755"
       inkscape:connector-curvature="0"
       sodipodi:nodetypes="ccccccccccccccccc" />
    <circle
       style="fill:none;fill-opacity:1;stroke:#000000;stroke-width:1;stroke-miterlimit:4;stroke-dasharray:none;stroke-opacity:1"
       id="path917"
       cx="1458.3032"
       cy="-76.607147"
       r="11.517858" />
  </g>
</svg>
