<svg width="2e3" height="2e3" version="1.1" viewBox="0 0 2000 2000" xmlns="http://www.w3.org/2000/svg">
 <g transform="translate(0 1e3)">
  <g fill="#ffffff" stroke="#8fa993">
   <rect x="1636.2" y="-61.081" width="37.754" height="17.046" stroke-linecap="round" stroke-width=".586"/>
   <ellipse transform="scale(-1,1)" cx="-1617.9" cy="-57.038" rx="29.916" ry="17.973" stroke-linejoin="bevel" stroke-width=".58567"/>
   <rect x="1442.2" y="-61.081" width="37.754" height="17.046" stroke-linecap="round" stroke-width=".586"/>
   <ellipse cx="1557.8" cy="-57.038" rx="27.057" ry="17.989" stroke-linejoin="bevel" stroke-width=".58567"/>
   <ellipse cx="1498.3" cy="-57.038" rx="29.916" ry="17.973" stroke-linejoin="bevel" stroke-width=".58567"/>
  </g>
  <g fill="none">
   <g stroke="#637d60">
    <path d="m998.12 30.637 11.859 302.37-52.969-43.93 49.016-46.301-45.458-37.852 42.642-39.186-39.134-29.204 36.811-23.571l-34.786-30.242 32.859-28.216-30.586-23.818h29.746l-30.783 23.867 32.76 28.265-35.033 30.242 36.713 23.472-39.233 29.155 42.148 39.383-45.755 37.703 49.179 46.245-53.132 43.838 13.292-302.17" stroke-linejoin="bevel" stroke-width=".78266"/>
    <g>
     <path d="m958.88 242.77h47.534" stroke-width=".78266"/>
     <path d="m960.66 205.2h44.52" stroke-width=".75744"/>
     <path d="m962.24 165.71h41.357" stroke-width=".73004"/>
     <path d="m963.63 136.5h38.64" stroke-width=".70565"/>
     <path d="m964.57 113.08h37.058" stroke-width=".69106"/>
     <path d="m965.95 82.738h34.341" stroke-width=".66524"/>
     <path d="m967.09 54.522h32.019" stroke-width=".64235"/>
     <path d="m956.86 289.03h51.536" stroke-width=".81495"/>
    </g>
   </g>
   <path d="m0 332.82h2e3" stroke="#7b4432" stroke-width="1.7699"/>
   <g stroke="#91a6aa">
    <path d="m956.94 30.016h52.58" stroke-width="1.6367"/>
    <path d="m958.22 29.969v-21.419" stroke-width="1.5653"/>
    <g stroke-width=".39133px">
     <path d="m964.48 29.969v-8.8402"/>
     <path d="m970.74 29.969v-8.8402"/>
     <path d="m977 29.969v-8.8402"/>
     <path d="m983.26 29.969v-8.8402"/>
     <path d="m989.53 29.969v-8.8402"/>
     <path d="m995.79 29.969v-8.8402"/>
     <path d="m1002 29.969v-8.8402"/>
    </g>
    <path d="m1008.3 29.969v-21.419" stroke-width="1.5653"/>
    <path d="m958.11 21.419h50.238" stroke-width=".77483"/>
   </g>
  </g>
  <path d="m1061.6-106.08c-12.744 16.937 13.639 30.21 30.917 16.971 7.7005 27.517 59.619 21.649 55.259 2.7221 2.9127 9.4879 48.202 25.107 49.316-2.9673 13.673 8.957 49.993-4.3341 23.477-24.988 8.9001-18.866-13.331-43.994-39.644-26.5 5.7271-23.515-57.212-23.844-59.424-3.6059-13.608-25.328-46.244-10.468-43.013 7.07-18.799-11.428-55.263 23.782-16.889 31.298z" fill="#ffffff" fill-rule="evenodd" stroke="#cbcbcb" stroke-width="1.0573"/>
  <path d="m955.11 10.594 11.137-11.094h33.751l11.119 11.085z" fill="#91a6aa" fill-rule="evenodd"/>
  <g fill="none" stroke="#957676">
   <g stroke-width=".97612px">
    <path d="m1448.7-57.843h84.016"/>
    <path d="m1583.4-57.843h84.016"/>
    <path d="m1533.5-57.931c11.272-9.5003 37.185-8.9105 48.632 0"/>
   </g>
   <path d="m1449.2-63.958v4.1688h18.181l0.01-4.1503z" stroke-width=".97612"/>
  </g>
  <g>
   <ellipse cx="1437.9" cy="-52.506" rx="10.666" ry="13.581" fill="#ffffff" stroke="#8fa993" stroke-linejoin="bevel" stroke-width=".58567"/>
   <ellipse cx="1557.8" cy="-52.506" rx="23.253" ry="13.444" fill="#ffffff" stroke="#8fa993" stroke-linejoin="bevel" stroke-width=".58567"/>
   <path d="m1666.9-63.958v4.1688h-18.181l-0.01-4.1503z" fill="none" stroke="#957676" stroke-width=".97612"/>
   <ellipse transform="scale(-1,1)" cx="-1678.3" cy="-52.506" rx="10.666" ry="13.581" fill="#ffffff" stroke="#8fa993" stroke-linejoin="bevel" stroke-width=".58567"/>
  </g>
  <g fill="none">
   <path d="m1628.2-101.03 20.358 42.934" stroke="#8c8c8c" stroke-width=".19522"/>
   <path d="m1530-57.669-15.416 32.657-56.563-32.657" stroke="#8c8c8c" stroke-width=".19522"/>
   <path d="m1514.1-24.388h88.311" stroke="#957676" stroke-width=".97612px"/>
  </g>
  <g>
   <path d="m1785.7-144.89c-16.967 10.752 4.0319 34.103 21.504 19.32 3.0101 24.073 37.173 12.359 36.623-1.512 1.7 8.9346 30.597 15.264 32.087-12.6 11.347 6.4373 37.007-4.3217 16.128-22.847 14.252-18.034-1.2088-32.66-21.335-18.312 6.1223-19.768-40.818-27.538-43.343-7.7278-16.716-15.317-47.039-5.0399-36.959 15.624-21.94-6.2388-31.394 19.499-4.704 28.055z" fill="#ffffff" fill-rule="evenodd" stroke="#cbcbcb" stroke-width=".94078"/>
   <ellipse cx="1557.8" cy="-108.69" rx="77.257" ry="17.79" fill="#ffffff" stroke="#8fa993" stroke-linejoin="bevel" stroke-width=".98416"/>
   <g>
    <path d="m1487.9-101.03-20.358 42.934" fill="none" stroke="#8c8c8c" stroke-width=".19522"/>
    <path d="m1204-257.27c-40.619 22.925-64.418-16.388-37.63-27.789-38.241-9.8788 7.0264-56.936 20.744-35.257 5.6595-33.575 53.208-29.272 65.339-3.1117-3.9156-25.32 64.24-48.301 65.424-6.7228-1.2526-24.23 64.966-55.135 81.571-4.7448 28.384-40.048 60.572-20.438 69.975 8.8901 26.138-21.179 58.595 23.712 26.068 31.678 31.561 19.848 4.5849 49.59-12.015 30.407-12.17 25.765-41.501 19.1-51.16 1.3785 3.4057 19.3-55.31 39.887-62.635 3.6109-2.2596 28.47-82.903 47.372-87.598-3.0074-1.0437 22.004-73.538 34.354-78.083 4.6684z" fill="#ffffff" fill-rule="evenodd" stroke="#cbcbcb" stroke-width="1.2462"/>
    <path d="m1586.1-57.669 15.416 32.657 56.563-32.657" fill="none" stroke="#8c8c8c" stroke-width=".19522"/>
   </g>
  </g>
  <path d="m1e3 -0.5h1.2627" fill="none" stroke="#000000" stroke-width="1px"/>
  <path d="m411.63-141.65c20.376 35.898 65.493 15.829 67.04 4.9179 10.382 34.169 75.465 11.361 69.588-12.142 3.9268 11.782 57.281 31.177 58.783-3.6846 17.206 11.122 57.915-5.5697 29.244-34.133 26.404-16.539 16.584-44.991-19.742-42.22 33.875-26.342 18.257-56.627-9.7197-50.156 9.0109-4.1491-4.3502-67.076-47.374-26.671-4.6125-15.962-50.507-43.531-74.631-5.7653-20.995-22.353-54.764-16.36-62.112 11.974 2.9016-15.202-56.648-24.046-56.334 19.957-42.95-12.566-44.974 25.541-27.466 37.224-18.241 4.2368-40.187 43.039-1.1018 51.282-17.243 5.079-5.6315 58.089 26.274 29.943-1.2356-2.342-0.94658 53.278 47.555 19.474z" fill="#ffffff" fill-rule="evenodd" stroke="#cbcbcb" stroke-width="1.223"/>
 </g>
</svg>
