<svg version="1.1" viewBox="0 0 800 800" xmlns="http://www.w3.org/2000/svg">
	<g transform="matrix(.52338 0 0 .52338 194.83 21.826)">
		<g transform="matrix(1.9837,0,0,1.9837,165.26,308.68)" fill="none" stroke="#000">
			<g stroke-linecap="round">
				<path d="m31.611 205.42c10.138-2.8922 46.356 3.2108 61.848 0.49082 15.492-2.7199 23.344 2.4208 34.595 1.4316s14.929-0.5001 21.258-1.5885 22.322 2.0367 27.016 1.0545 22.742-1.4592 25.863-3.5197 25.115 5.5053 26.777-1.1871 11.362-25.306 11.653-28.689-8.9758-34.026-9.0826-37.017-6.899-34.734-7.1126-40.395c-0.21361-5.6608 12.805-29.379 11.725-37.901s-5.6582-19.915-10.276-24.501-36.464 3.0441-43.768 4.792-31.186-4.3681-41.664-3.0015-22.822 4.5553-28.516 6.3014-13.088-1.1631-20.996 4.0643-15.702 3.872-21.411 4.4935-17.209-6.2223-20.606-4.4993c-3.3972 1.7231-14.688 16.38-17.002 22.437s-6.1588 15.016-10.981 23.594c-4.8224 8.5777-12.128 2.4134-10.53 9.6781 1.5978 7.2647-3.6846 22.906-3.9312 32.214s-2.3592 13.597-3.0632 21.576 1.5795 18.04 12.623 20.404c11.043 2.3638 5.4437 32.66 15.581 29.767z" fill="#fff" stroke="#000" stroke-linecap="butt" stroke-width="2.5205"/>
			</g>
		</g>
	</g>
</svg>
