<svg version="1.1" viewBox="0 0 800 800" xmlns="http://www.w3.org/2000/svg">
	<g transform="translate(0 -322.52)">
		<g transform="matrix(1.9837 0 0 1.9837 165.26 308.68)" fill="none" stroke="#000">
			<g stroke-linecap="round">
				<path d="m-11.057 200.41c1.6955 2.0184 20.243 4.8021 24.567 4.8021 4.3241 0 4.7792-0.22759 6.3723-0.22759 1.5931 0 8.6481 2.0482 10.583 2.0482 1.9344 0 16.766-3.6912 24.124-4.3241 7.3575-0.63288 18.32-0.22759 19.8 0.11379 1.4793 0.34137 5.9171 3.5275 7.1688 3.5275s13.769-2.3896 15.476-2.5034c1.7069-0.11379 17.296 3.4137 19.231 3.4137 1.9345 0 8.5343-4.0965 9.786-4.0965s8.9895 3.2999 10.696 3.4137c1.7069 0.11381 7.8516-4.6654 10.469-5.0068 2.6172-0.34138 19.344 5.1206 20.482 5.1206 1.1379 0 16.613-2.162 20.255-2.8448 3.6413-0.68274 15.023-2.0454 17.754-3.9799 2.731-1.9344 8.6453-10.472 10.807-11.382 2.162-0.91033 9.786-4.7792 11.265-6.4861s1.7069-9.6722 2.0482-12.517c0.34137-2.8448 9.3308-12.403 9.4446-15.589 0.1138-3.1862-3.4137-22.417-3.5275-25.603-0.1138-3.1862-7.9654-35.161-8.193-41.192-0.22759-6.0309-0.11379-27.537-0.11379-29.927s-5.3482-11.152-6.3723-13.314c-1.0241-2.162-15.02-9.4447-17.182-12.176-2.162-2.731-12.403-8.0792-15.931-8.8757-3.5275-0.79654-11.152-10.696-15.02-10.924-3.8689-0.22758-14.793 7.055-18.889 6.9413s-9.5584 0.34137-11.834 0.56895c-2.2758 0.22758-11.607 4.5516-12.745 4.6654-1.1379 0.11379-6.0309-1.3655-7.3964-0.91033-1.3655 0.45516-3.0724 4.2103-5.1206 4.7792-2.0482 0.56896-15.134 1.9344-17.865 2.8448-2.731 0.91032-10.163 5.9595-11.301 7.0974-1.1379 1.1379-17.147 3.4851-18.626 4.0541-1.4793 0.56896-18.776-6.4861-20.482-6.0309-1.7069 0.45516-15.817-1.2517-16.727-0.79654-0.91033 0.45516-3.9827 10.241-4.893 11.607-0.91032 1.3655-1.7587 17.312-2.4415 18.45-0.68274 1.1379-10.076 4.1941-11.327 5.332-1.2517 1.1379-10.355 12.062-11.152 13.655-0.79654 1.5931-11.834 21.051-11.834 22.303s1.4793 19.458 0.68275 21.506c-0.79654 2.0482-3.4137 8.7619-3.6413 10.355-0.22758 1.5931-0.34137 7.1688-0.68274 9.2171s-5.0068 9.2171-5.3482 10.696c-0.34137 1.4793 0.91033 13.769 0.79654 15.589-0.11379 1.8206-0.45516 13.427-0.56895 14.451-0.1138 1.0241 5.7124 10.134 7.4078 12.153z" fill="#fff" stroke="#000" stroke-linecap="butt" stroke-width="2.6855"/>
			</g>
		</g>
	</g>
</svg>
