<svg version="1.1" viewBox="0 0 800 800" xmlns="http://www.w3.org/2000/svg">
	<g transform="translate(0 -322.52)">
		<g transform="matrix(1.9837 0 0 1.9837 165.26 308.68)" fill="none" stroke="#000">
			<g stroke-linecap="round">
				<path d="m-8.9797 204.49s221.84 1.141 237.87 1.141c20.446 0 24.589-27.395 0.13364-41.56" stroke-width="6"/>
				<path d="m235.23 200.68s-49.392-50.105-51.476-50.236c-2.1672-0.13688-49.308 50.432-49.308 50.432" stroke-width="5"/>
				<path d="m132.51 202.86s-11.939-25.116-14.585-40.802 1.8899-28.159 6.2366-35.53c4.3467-7.3705 8.646-12.65 8.646-12.65m-13.56-19.667c-3.0238-12.095-3.7798-26.647 5.6696-40.632 9.4494-13.985 28.726-19.844 44.223-17.198 15.497 2.6458 23.812 18.143 24.001 31.939 0.18899 13.796-4.7857 34.182-17.387 43.845-12.701 9.7396-38.334 4.5445-42.806 1.3229-4.1577-2.5513-10.678-7.1816-13.702-19.277z" stroke-width="5"/>
				<path d="m129.83 119.16s20.977 30.05 24 30.617c3.0238 0.56697 41.015-0.0603 41.015-0.0603" stroke-width="4"/>
				<path d="m131.91 117.08s26.711 23.119 30.49 24.631c3.7798 1.5119 36.222 4.8498 36.222 4.8498" stroke-width="4"/>
				<path d="m41.663 203.47s14.925-56.904 17.349-57.138c2.2654-0.21853 38.694 53.578 38.694 53.578" stroke-width="5.0004"/>
			</g>
			<path d="m109.28 112.13s2.7376 24.011 2.234 40.583c-0.56424 18.569-10.014 41.489-13.812 47.2" stroke-width="5.0004"/>
			<path d="m109.28 112.13c9.0858-9.0034 6.8661-25.542-0.77777-36.489-9.1473-11.826-19.95-19.59-33.624-22.475-13.821-2.9167-24.551-0.09517-29.109 6.0476-5.3631 7.2284-5.7019 22.363 6.2376 39.876 11.959 17.541 44.797 22.49 57.273 13.04z" stroke-width="5.0004"/>
			<g stroke-linecap="round">
				<g stroke-width="4.0003">
					<path d="m109.91 119.81s-26.574 31.303-30.08 32.837-42.356 2.5765-42.356 2.5765"/>
					<path d="m109.28 118.37s-27.373 23.057-31.999 24.408c-4.6256 1.351-36.565 9.9077-36.565 9.9077"/>
					<path d="m110.53 93.371c3.2952-2.7816 7.1747-5.6857 13.085 2.0532 5.965 7.8106 6.6686 23.566 6.6686 23.566"/>
					<path d="m108.64 85.77s3.948-5.8583 10.643-1.9408c7.3676 4.3113 9.914 15.702 12.093 34.539"/>
					<path d="m67.27 59.207c2.8603-7.6172 8.0441-12.66 15.386-13.634 11.815-1.5675 38.449 6.9376 44.385 72.255"/>
					<path d="m59.865 57.633s1.3988-10.064 13.695-13.004c12.296-2.94 43.684 9.7095 49.397 73.42"/>
					<path d="m78.002 62.552s3.5629-8.7014 12.326-9.2272c17.253-1.0351 30.296 27.256 29.127 64.226"/>
					<path d="m87.957 66.89s1.6699-4.291 7.9853-6.2154c14.034-4.2763 32.766 15.598 37.333 57.001"/>
					<path d="m73.127 61.355s3.8024-7.9161 9.7552-10.439c12-5.0854 34.226-7.7144 46.311 48.614"/>
					<path d="m98.348 74.84s2.5387-6.1226 11.227-5.7463c11.209 0.48542 13.354 8.7661 8.9467 50.591"/>
					<path d="m103.56 80.453s3.0364-6.9907 11.085-4.0778c12.862 4.6551 10.955 43.565 10.955 43.565"/>
				</g>
				<path d="m225.55 166s-56.831-32.253-60.233-32.064c-3.4018 0.18899-31.707 66.765-31.707 66.765" stroke-width="5"/>
			</g>
			<path d="m97.493 200.06c-4.2449-7.4923-33.192-41.238-37.839-40.71-4.3456 0.22895-43.264 44.471-43.264 44.471" stroke-width="5.0004"/>
		</g>
	</g>
</svg>
